<?xml version="1.0" standalone="no"?>
<!DOCTYPE svg PUBLIC "-//W3C//DTD SVG 20010904//EN"
 "http://www.w3.org/TR/2001/REC-SVG-20010904/DTD/svg10.dtd">
<svg version="1.0" xmlns="http://www.w3.org/2000/svg"
 width="1536.000000pt" height="1501.000000pt" viewBox="0 0 1536.000000 1501.000000"
 preserveAspectRatio="xMidYMid meet">

<g transform="translate(0.000000,1501.000000) scale(0.100000,-0.100000)"
fill="#000000" stroke="none">
<path d="M0 14816 c0 -163 2 -195 15 -200 8 -3 15 -13 15 -23 -1 -17 -2 -17
-15 1 -12 16 -14 3 -11 -105 2 -68 4 -130 5 -136 1 -7 12 -13 26 -13 18 0 23
4 18 16 -4 11 -8 12 -13 4 -5 -8 -10 -9 -14 -2 -9 15 7 22 48 24 28 1 33 4 25
14 -13 16 9 54 33 54 21 0 38 -52 20 -58 -7 -2 -9 -14 -6 -29 4 -16 2 -28 -6
-33 -7 -5 -10 -15 -6 -25 6 -17 7 -17 26 0 11 10 17 22 13 28 -3 6 -1 7 5 3 7
-4 12 -2 12 3 0 6 7 11 15 11 10 0 15 10 15 29 0 24 4 29 28 29 15 0 30 -5 34
-12 4 -6 13 -11 20 -12 7 0 29 -2 48 -4 19 -1 28 -4 19 -7 -11 -3 -15 -11 -12
-24 7 -25 19 -24 29 4 6 18 8 15 11 -20 2 -24 8 -43 14 -43 12 0 12 77 -1 85
-19 12 1 25 37 25 27 0 34 -3 29 -15 -3 -10 1 -15 13 -15 10 0 21 -9 24 -20 3
-11 13 -20 24 -20 24 0 44 -32 32 -51 -5 -8 -8 -27 -7 -44 0 -22 2 -24 5 -9 2
12 13 30 24 40 26 23 24 43 -6 54 -14 5 -25 16 -25 25 0 8 -8 15 -19 15 -20 0
-36 48 -22 63 16 16 42 -5 39 -32 -3 -23 1 -26 37 -32 26 -4 43 -3 47 5 5 7 8
5 8 -6 0 -14 9 -18 41 -18 31 0 40 -3 36 -14 -6 -16 44 -41 65 -33 8 3 5 6 -7
7 l-20 1 20 15 c14 11 16 18 8 21 -7 3 -13 9 -13 15 0 6 7 8 15 4 8 -3 15 -1
15 5 0 11 -89 7 -108 -5 -17 -10 -37 33 -22 48 9 8 16 6 29 -11 14 -16 21 -19
30 -10 6 6 11 16 11 22 1 13 50 49 50 36 0 -6 6 -8 14 -5 8 3 20 -1 27 -9 12
-13 16 -12 26 7 l12 21 1 -22 c0 -24 12 -27 45 -13 19 8 19 9 -2 9 -13 1 -23
6 -23 12 0 6 8 8 18 5 9 -3 24 -1 32 4 12 8 11 10 -7 10 -13 0 -23 5 -23 10 0
6 9 10 20 10 15 0 20 7 20 25 0 23 3 25 49 25 32 0 51 -5 53 -13 2 -9 8 -8 20
5 17 17 16 18 -15 26 l-32 9 43 7 c42 8 69 35 44 44 -17 5 -15 42 3 48 18 7
20 31 2 37 -9 3 -9 7 2 20 7 10 16 17 20 17 13 0 9 -73 -5 -87 -16 -17 -18
-33 -4 -33 6 0 10 -9 10 -21 0 -11 5 -17 10 -14 6 3 10 18 10 31 0 16 5 24 13
21 6 -2 11 -13 10 -23 -1 -10 0 -13 3 -6 7 14 84 17 84 2 0 -5 18 -10 40 -10
37 0 55 13 29 22 -7 2 -9 13 -5 25 6 18 11 20 44 12 20 -5 58 -9 85 -9 38 0
47 -3 48 -17 0 -14 3 -13 11 5 20 40 34 25 36 -37 2 -50 0 -60 -15 -64 -14 -4
-13 -5 5 -6 20 -1 22 4 24 57 0 31 1 65 0 75 -1 9 3 17 8 17 6 0 10 -17 10
-38 0 -31 5 -41 28 -54 23 -13 29 -14 40 -2 18 20 15 44 -7 44 -29 0 -34 17
-8 24 12 3 24 1 25 -4 5 -14 22 -2 22 14 0 8 -10 17 -22 21 -14 4 -18 8 -10
12 6 2 13 14 13 26 1 21 2 21 6 2 3 -11 12 -28 21 -37 15 -17 17 -31 20 -110
2 -45 22 -52 22 -8 0 17 5 30 11 30 6 0 8 -10 5 -22 -3 -13 -3 -17 0 -10 3 6
12 12 20 12 17 0 19 -26 2 -34 -7 -2 -2 -4 12 -3 22 2 25 -2 22 -25 -2 -14 2
-29 7 -33 6 -3 11 0 11 9 0 8 6 17 13 19 9 4 8 8 -3 17 -12 8 -1 10 45 8 l60
-3 -4 43 c-2 26 1 42 8 42 6 0 11 -18 11 -40 0 -22 5 -40 10 -40 6 0 10 4 10
10 0 5 7 7 15 4 11 -4 15 0 15 16 0 15 5 20 17 18 25 -5 27 -25 2 -33 -12 -4
-17 -10 -12 -14 5 -3 13 -15 17 -25 8 -22 22 -12 28 19 2 11 13 21 25 23 12 2
27 10 33 18 16 18 30 18 30 -1 0 -8 -5 -15 -11 -15 -6 0 -17 -7 -25 -15 -14
-13 -12 -16 10 -27 14 -6 26 -17 26 -25 0 -7 5 -13 10 -13 6 0 10 8 10 18 0
13 13 23 40 32 24 8 40 20 40 29 1 15 2 15 13 0 38 -49 70 -39 82 25 4 20 9
35 12 33 4 -5 -18 -127 -24 -136 -2 -3 -9 2 -16 11 -6 8 -27 21 -45 28 -29 11
-34 11 -47 -6 -17 -23 -19 -34 -5 -34 6 0 10 7 10 15 0 17 26 20 36 4 3 -6 15
-9 25 -6 12 3 19 0 19 -9 0 -17 -22 -18 -37 -3 -6 6 -16 8 -22 4 -18 -11 -2
-25 29 -25 15 0 30 -5 32 -12 10 -28 35 5 56 75 28 91 52 119 52 62 0 -29 3
-36 15 -32 8 4 17 2 20 -3 4 -6 -7 -10 -24 -10 -20 0 -31 6 -33 18 -3 9 -8 -7
-12 -36 -5 -29 -6 -55 -4 -57 2 -2 20 2 40 8 30 11 34 16 27 30 -8 13 -6 17 6
17 10 0 15 -10 15 -29 0 -27 -3 -30 -37 -33 -52 -4 -52 -32 -1 -36 l37 -3 6
48 c3 26 7 54 8 62 1 8 7 16 12 18 6 2 9 -14 7 -41 -3 -29 0 -45 10 -48 10 -4
13 6 12 42 -1 26 -5 53 -8 59 -4 6 -3 11 3 11 5 0 13 -5 17 -11 8 -13 9 -107
1 -115 -8 -8 4 -44 15 -44 5 0 7 -4 4 -9 -3 -5 -16 -7 -29 -4 -13 3 -18 1 -11
-4 6 -4 14 -17 18 -28 7 -19 8 -19 17 -2 6 10 23 17 42 18 31 1 31 1 7 9 -24
8 -23 8 8 9 21 1 32 6 32 16 0 8 5 15 11 15 8 0 9 -14 5 -42 -8 -49 -14 -58
-26 -38 -5 8 -13 11 -17 6 -4 -5 -2 -11 5 -13 6 -3 12 -11 12 -19 0 -20 6 -18
40 18 l30 31 30 -29 c16 -16 30 -36 30 -44 0 -8 9 -21 19 -27 17 -11 21 -9 27
9 4 13 2 24 -5 26 -6 2 -11 8 -11 13 0 5 9 4 20 -3 16 -10 24 -10 40 0 18 11
20 10 20 -8 0 -11 5 -20 10 -20 6 0 10 5 10 11 0 6 12 9 28 7 19 -2 28 -9 30
-25 3 -18 10 -23 32 -23 27 0 29 3 35 55 4 30 5 61 1 70 -3 8 -1 15 4 15 6 0
10 -6 10 -14 0 -8 6 -17 13 -19 10 -4 10 -6 0 -6 -7 -1 -13 -12 -13 -26 0 -27
9 -32 27 -14 8 8 16 8 30 0 16 -9 15 -10 -9 -11 -25 0 -28 -4 -28 -32 0 -18 7
-53 14 -78 l15 -45 0 38 c1 37 14 50 24 22 5 -12 13 -12 59 1 29 9 57 21 61
28 6 8 10 8 14 -1 2 -7 11 -13 19 -13 8 0 14 -4 14 -10 0 -13 -13 -13 -27 1
-16 16 -53 -11 -53 -38 0 -26 -3 -27 -47 -14 -26 8 -32 6 -36 -9 -3 -14 -1
-17 12 -13 13 5 14 3 4 -8 -7 -7 -13 -17 -13 -21 0 -17 25 -6 71 33 48 40 50
41 69 24 11 -10 20 -27 20 -39 0 -16 3 -17 12 -8 10 10 10 17 0 33 -10 16 -10
24 -2 34 7 8 9 19 5 25 -3 6 3 10 14 10 12 0 21 -5 21 -11 0 -5 4 -8 9 -5 4 3
6 18 4 33 -4 22 -2 25 6 13 18 -25 14 -68 -6 -66 -10 0 -18 -6 -18 -14 0 -8 8
-14 18 -14 9 1 17 -2 17 -7 0 -5 7 -9 15 -9 8 0 15 -3 15 -8 0 -4 10 -12 23
-17 16 -7 22 -19 23 -43 1 -42 14 -55 14 -14 0 17 5 34 11 37 6 4 8 22 4 46
-4 23 -3 39 3 39 13 0 23 -53 17 -92 -3 -18 -3 -26 1 -18 3 8 8 22 11 30 4 8
7 37 8 63 1 26 7 53 13 59 8 8 9 5 5 -11 -4 -15 -1 -21 11 -21 9 0 16 -4 16
-10 0 -5 -7 -10 -15 -10 -9 0 -15 -9 -15 -21 0 -20 4 -21 58 -16 31 3 50 2 42
-1 -8 -3 -18 -10 -22 -16 -16 -24 -7 -27 25 -8 31 19 57 20 57 1 0 -5 -6 -9
-14 -9 -8 0 -16 -4 -18 -10 -1 -5 -34 -14 -73 -19 -38 -4 -58 -9 -43 -10 14 0
28 -7 31 -13 3 -10 7 -10 20 1 11 9 17 10 17 2 0 -6 9 -11 20 -11 11 0 20 5
20 10 0 13 47 13 52 -1 2 -5 11 -7 21 -4 15 6 14 9 -6 26 -12 10 -17 18 -11
19 6 0 14 -3 18 -7 4 -5 15 -8 24 -9 10 -1 28 -2 41 -3 24 -1 24 -2 6 -15 -17
-12 -21 -12 -31 2 -9 13 -11 11 -10 -9 1 -21 -3 -24 -31 -21 -39 3 -44 -15 -8
-24 18 -4 32 -1 45 11 11 10 23 15 27 11 4 -4 1 -11 -7 -17 -13 -8 -13 -10 0
-19 8 -5 20 -10 26 -10 6 0 9 -13 6 -30 -2 -16 0 -30 6 -30 5 0 12 16 14 35 3
24 0 35 -9 35 -7 0 -13 5 -13 10 0 6 9 10 20 10 19 0 23 -8 21 -40 0 -10 1
-11 5 -2 9 19 24 14 24 -8 0 -11 5 -20 10 -20 6 0 10 9 10 20 0 11 5 20 11 20
6 0 9 -9 6 -20 -3 -11 -1 -20 4 -20 5 0 9 -11 9 -25 0 -23 4 -25 41 -25 35 0
40 -3 34 -19 -7 -24 20 -48 38 -32 10 8 17 7 25 -1 9 -9 12 -9 12 0 0 7 11 12
25 12 14 0 25 5 25 11 0 7 -10 9 -24 7 -21 -4 -24 -1 -30 40 -8 61 -8 72 4 72
6 0 10 -23 10 -51 l0 -51 40 7 c39 7 40 6 40 -24 0 -30 -2 -31 -41 -31 -28 0
-39 -4 -37 -12 7 -20 47 -22 67 -4 10 9 21 13 26 9 4 -5 5 -3 2 3 -3 6 10 25
28 43 19 18 35 38 34 44 0 8 -2 8 -6 0 -2 -7 -9 -13 -14 -13 -13 0 -11 27 4
42 16 16 30 51 18 44 -5 -3 -14 1 -20 8 -8 9 -8 16 -2 20 6 4 7 14 4 22 -3 9
0 20 8 25 10 6 10 9 2 9 -19 0 -16 18 7 42 11 12 17 24 14 27 -4 3 -9 0 -11
-6 -7 -20 -23 -15 -23 7 0 11 -7 20 -15 20 -20 0 -19 6 5 30 11 11 20 34 21
53 0 17 3 26 6 20 2 -8 22 -13 44 -13 37 0 44 -6 40 -37 -1 -7 6 -24 14 -37 9
-14 14 -29 12 -34 -3 -4 -2 -14 4 -22 7 -13 9 -12 9 3 0 9 4 17 8 17 5 0 14
11 22 24 11 22 14 23 28 10 8 -9 23 -13 33 -11 12 3 16 0 12 -9 -3 -8 0 -14 6
-14 6 0 11 8 11 18 0 9 3 27 6 40 5 16 2 22 -10 22 -9 0 -16 5 -16 12 0 6 3 8
6 5 4 -3 16 0 27 8 15 11 24 12 34 3 10 -8 13 -7 13 5 0 9 -8 21 -17 27 -13 8
-14 13 -6 16 9 4 10 11 3 24 -13 24 -4 28 47 25 45 -4 83 -20 83 -36 0 -6 -4
-7 -10 -4 -20 12 -9 -24 16 -54 23 -27 54 -45 40 -23 -3 5 1 9 9 9 9 0 14 -7
13 -16 -2 -10 6 -17 20 -19 25 -4 28 -37 3 -37 -8 0 -16 -6 -18 -12 -3 -7 2
-13 11 -13 9 0 13 -6 10 -14 -3 -9 4 -20 18 -27 34 -19 48 -19 41 -2 -4 11 -2
14 8 11 8 -3 13 -11 11 -17 -2 -9 3 -9 18 -1 11 6 19 15 17 20 -1 5 7 15 17
23 23 17 36 131 17 150 -8 8 -11 6 -12 -9 -1 -10 -5 -1 -9 21 -5 24 -4 45 2
52 6 7 9 46 6 88 -2 41 1 75 5 75 5 0 7 7 3 15 -3 8 -1 15 5 15 6 0 8 4 4 9
-3 5 -2 12 3 15 5 3 7 19 4 36 -3 24 1 35 21 50 14 11 28 34 32 50 4 17 11 30
16 30 5 0 9 11 9 25 0 14 5 25 11 25 6 0 8 9 3 23 -4 12 -8 31 -10 42 -1 11
-8 34 -15 50 -17 42 -19 56 -6 48 7 -4 8 0 4 11 -4 10 -7 29 -7 42 l0 24
-2480 0 -2480 0 0 -194z m750 -56 c0 -5 -2 -10 -4 -10 -3 0 -8 5 -11 10 -3 6
-1 10 4 10 6 0 11 -4 11 -10z m527 -27 c-3 -10 -5 -4 -5 12 0 17 2 24 5 18 2
-7 2 -21 0 -30z m460 31 c-3 -3 -12 -4 -19 -1 -8 3 -5 6 6 6 11 1 17 -2 13 -5z
m-647 -14 c0 -5 -4 -10 -10 -10 -5 0 -10 5 -10 10 0 6 5 10 10 10 6 0 10 -4
10 -10z m890 -20 c0 -5 -4 -10 -10 -10 -5 0 -10 5 -10 10 0 6 5 10 10 10 6 0
10 -4 10 -10z m-1100 -10 c0 -5 -5 -10 -11 -10 -5 0 -7 5 -4 10 3 6 8 10 11
10 2 0 4 -4 4 -10z m720 1 c0 -6 -4 -13 -10 -16 -5 -3 -10 1 -10 9 0 9 5 16
10 16 6 0 10 -4 10 -9z m450 -1 c0 -5 -2 -10 -4 -10 -3 0 -8 5 -11 10 -3 6 -1
10 4 10 6 0 11 -4 11 -10z m-563 -6 c-3 -3 -12 -4 -19 -1 -8 3 -5 6 6 6 11 1
17 -2 13 -5z m-267 -26 c10 -3 8 -6 -8 -10 -18 -5 -22 -2 -22 15 0 13 3 17 8
11 4 -6 14 -13 22 -16z m325 12 c3 -5 1 -10 -4 -10 -6 0 -11 5 -11 10 0 6 2
10 4 10 3 0 8 -4 11 -10z m-1037 -23 c2 -9 -1 -17 -7 -17 -6 0 -7 8 -4 17 5
13 2 15 -11 10 -11 -4 -15 -3 -11 4 9 14 29 6 33 -14z m1506 8 c-4 -8 -8 -15
-10 -15 -2 0 -4 7 -4 15 0 8 4 15 10 15 5 0 7 -7 4 -15z m-1653 -22 c-12 -20
-14 -14 -5 12 4 9 9 14 11 11 3 -2 0 -13 -6 -23z m642 -55 c15 -10 -40 -8 -73
2 -23 7 -24 8 -6 15 13 6 21 4 24 -3 8 -24 20 -11 28 31 l9 42 3 -40 c2 -22 9
-43 15 -47z m107 66 c0 -8 -4 -12 -10 -9 -5 3 -10 10 -10 16 0 5 5 9 10 9 6 0
10 -7 10 -16z m315 6 c18 -1 18 -2 3 -10 -11 -7 -25 -7 -42 0 -32 12 -34 25
-3 16 12 -3 31 -6 42 -6z m202 4 c-3 -3 -12 -4 -19 -1 -8 3 -5 6 6 6 11 1 17
-2 13 -5z m210 0 c-3 -3 -12 -4 -19 -1 -8 3 -5 6 6 6 11 1 17 -2 13 -5z m486
-9 c-3 -9 -8 -14 -10 -11 -3 3 -2 9 2 15 9 16 15 13 8 -4z m-2243 -48 c-8 -9
-10 -8 -5 6 4 10 2 17 -5 17 -6 0 -8 5 -4 11 5 8 10 6 16 -6 7 -11 6 -21 -2
-28z m1190 33 c0 -5 -6 -10 -14 -10 -8 0 -18 5 -21 10 -3 6 3 10 14 10 12 0
21 -4 21 -10z m59 -37 c1 -7 -6 -13 -14 -13 -15 0 -21 40 -8 54 7 7 21 -18 22
-41z m529 33 c-10 -7 -18 -18 -18 -25 0 -12 -11 -14 -34 -5 -20 8 -11 24 15
24 10 0 19 5 19 10 0 6 8 10 18 10 16 -1 16 -1 0 -14z m-1138 -11 c0 -9 -9
-15 -25 -15 -14 0 -25 -4 -25 -10 0 -5 -9 -10 -20 -10 -26 0 -25 7 3 31 27 22
67 25 67 4z m180 6 c0 -6 -4 -13 -10 -16 -5 -3 -10 1 -10 9 0 9 5 16 10 16 6
0 10 -4 10 -9z m-860 -11 c0 -5 -4 -10 -10 -10 -5 0 -10 5 -10 10 0 6 5 10 10
10 6 0 10 -4 10 -10z m1021 -30 c5 0 9 5 9 10 0 6 5 10 10 10 6 0 10 -7 10
-15 0 -8 -4 -15 -9 -15 -5 0 -16 -3 -25 -6 -13 -5 -16 1 -15 27 1 24 3 27 6
12 2 -13 9 -23 14 -23z m1219 30 c0 -5 -4 -10 -10 -10 -5 0 -10 5 -10 10 0 6
5 10 10 10 6 0 10 -4 10 -10z m-1770 -10 c0 -5 -4 -10 -10 -10 -5 0 -10 5 -10
10 0 6 5 10 10 10 6 0 10 -4 10 -10z m1423 -3 c3 -8 1 -20 -4 -28 -6 -10 -9
-7 -9 14 0 29 5 35 13 14z m67 -2 c0 -8 -4 -15 -10 -15 -5 0 -7 7 -4 15 4 8 8
15 10 15 2 0 4 -7 4 -15z m-1880 -2 c0 -5 -7 -17 -15 -27 -13 -17 -15 -18 -15
-3 0 9 5 17 11 17 5 0 7 5 4 10 -3 6 -1 10 4 10 6 0 11 -3 11 -7z m628 -8 c-2
-5 -16 -10 -33 -12 l-30 -3 25 14 c27 15 43 16 38 1z m52 5 c0 -5 -5 -10 -11
-10 -5 0 -7 5 -4 10 3 6 8 10 11 10 2 0 4 -4 4 -10z m1100 0 c12 -8 9 -10 -13
-10 -16 0 -26 4 -22 10 8 12 16 12 35 0z m160 -1 c0 -6 -9 -13 -20 -16 -11 -3
-20 -9 -20 -13 0 -4 -7 -10 -15 -14 -9 -3 -15 0 -15 8 0 8 11 17 25 20 14 4
25 11 25 16 0 6 5 10 10 10 6 0 10 -5 10 -11z m45 1 c3 -5 -1 -10 -9 -10 -9 0
-16 5 -16 10 0 6 4 10 9 10 6 0 13 -4 16 -10z m105 0 c0 -5 -5 -10 -11 -10 -5
0 -7 5 -4 10 3 6 8 10 11 10 2 0 4 -4 4 -10z m-1720 -41 c-11 -8 -12 -12 -2
-16 6 -2 9 -9 6 -14 -3 -6 -11 -5 -20 2 -11 9 -11 15 -3 25 6 8 8 22 5 31 -7
17 -6 17 11 0 16 -15 16 -19 3 -28z m60 31 c0 -5 -5 -10 -11 -10 -5 0 -7 5 -4
10 3 6 8 10 11 10 2 0 4 -4 4 -10z m1775 0 c9 -14 -6 -81 -16 -74 -12 7 -11
44 1 44 14 0 12 27 -2 33 -10 4 -10 6 -1 6 6 1 15 -3 18 -9z m145 -27 c0 -7
-4 -13 -10 -13 -5 0 -10 12 -10 28 0 21 2 24 10 12 5 -8 10 -21 10 -27z m30
33 c0 -3 -4 -8 -10 -11 -5 -3 -10 -1 -10 4 0 6 5 11 10 11 6 0 10 -2 10 -4z
m-663 -40 c0 -17 -2 -25 -4 -18 -3 6 -11 12 -19 12 -8 0 -14 6 -14 14 0 8 -6
16 -12 19 -7 2 1 4 18 4 28 0 31 -3 31 -31z m-1167 4 c0 -5 -7 -10 -15 -10 -8
0 -15 5 -15 10 0 6 7 10 15 10 8 0 15 -4 15 -10z m1834 -9 c-22 -21 -27 -21
-18 3 3 9 13 16 22 16 13 0 12 -3 -4 -19z m213 -13 c-3 -8 -6 -5 -6 6 -1 11 2
17 5 13 3 -3 4 -12 1 -19z m-2601 -4 c-3 -9 -6 -18 -6 -20 0 -2 -7 -4 -15 -4
-13 0 -13 3 -3 20 15 24 33 27 24 4z m124 6 c0 -5 -4 -10 -10 -10 -5 0 -10 5
-10 10 0 6 5 10 10 10 6 0 10 -4 10 -10z m518 -16 c-3 -27 -13 -31 -22 -9 -3
8 -15 15 -26 15 -11 0 -20 4 -20 9 0 5 16 9 35 9 30 0 34 -3 33 -24z m1169 4
c-3 -8 -6 -5 -6 6 -1 11 2 17 5 13 3 -3 4 -12 1 -19z m313 7 c0 -16 -17 -19
-44 -9 -26 10 -18 24 14 24 20 0 30 -5 30 -15z m-1970 -10 c0 -8 -7 -15 -16
-15 -14 0 -14 3 -4 15 7 8 14 15 16 15 2 0 4 -7 4 -15z m34 -1 c3 -8 2 -12 -4
-9 -6 3 -10 10 -10 16 0 14 7 11 14 -7z m316 6 c0 -5 -7 -10 -15 -10 -8 0 -15
5 -15 10 0 6 7 10 15 10 8 0 15 -4 15 -10z m-560 -33 c0 -8 -3 -7 -9 2 -7 11
-10 9 -16 -8 -4 -13 -9 -20 -12 -18 -2 3 0 15 7 26 11 22 30 20 30 -2z m350
13 c12 -7 12 -12 2 -22 -9 -9 -12 -9 -12 5 0 9 -5 17 -11 17 -5 0 -7 -4 -4
-10 4 -6 -7 -10 -24 -10 -37 0 -40 7 -8 20 29 12 39 12 57 0z m45 0 c3 -6 -1
-7 -9 -4 -18 7 -21 14 -7 14 6 0 13 -4 16 -10z m220 0 c4 -6 11 -8 16 -5 5 4
9 1 9 -4 0 -6 -13 -11 -30 -11 -16 0 -30 -4 -30 -10 0 -5 18 -10 41 -10 38 0
40 -1 37 -27 -3 -25 -7 -28 -35 -25 -30 2 -33 -1 -34 -25 l-2 -28 -4 28 c-2
15 -8 25 -13 22 -4 -3 -13 2 -20 10 -10 12 -10 19 2 33 9 9 19 27 22 40 8 23
30 30 41 12z m230 -5 c17 -2 33 -4 38 -4 4 -1 7 -6 7 -12 0 -12 -49 -9 -66 3
-17 12 -84 16 -84 6 0 -5 -5 -6 -11 -2 -21 12 14 25 51 18 19 -3 49 -8 65 -9z
m-395 -4 c0 -6 -4 -13 -10 -16 -5 -3 -10 1 -10 9 0 9 5 16 10 16 6 0 10 -4 10
-9z m90 -1 c0 -5 -4 -10 -10 -10 -5 0 -10 5 -10 10 0 6 5 10 10 10 6 0 10 -4
10 -10z m-490 -20 c0 -5 -7 -10 -16 -10 -8 0 -12 5 -9 10 3 6 10 10 16 10 5 0
9 -4 9 -10z m-50 -37 c-11 -17 -11 -17 -6 0 3 10 6 24 7 30 0 9 2 9 5 0 3 -7
0 -20 -6 -30z m481 0 c-10 -17 -10 -16 -11 3 0 23 13 41 18 25 2 -6 -1 -18 -7
-28z m243 -7 c-6 -17 -8 -16 -20 5 -15 29 -7 46 13 27 8 -9 11 -22 7 -32z m50
28 c9 -22 8 -24 -9 -24 -8 0 -15 9 -15 20 0 24 15 27 24 4z m40 0 c8 -22 8
-24 -8 -24 -9 0 -14 9 -13 20 2 24 13 26 21 4z m-634 -10 c0 -8 -4 -12 -10 -9
-5 3 -10 10 -10 16 0 5 5 9 10 9 6 0 10 -7 10 -16z m100 12 c0 -2 -7 -7 -16
-10 -8 -3 -12 -2 -9 4 6 10 25 14 25 6z m60 -6 c0 -5 -2 -10 -4 -10 -3 0 -8 5
-11 10 -3 6 -1 10 4 10 6 0 11 -4 11 -10z m-110 -10 c0 -5 -4 -10 -10 -10 -5
0 -10 5 -10 10 0 6 5 10 10 10 6 0 10 -4 10 -10z m150 -5 c0 -8 -4 -15 -10
-15 -5 0 -10 7 -10 15 0 8 5 15 10 15 6 0 10 -7 10 -15z m-240 -5 c0 -5 -6
-10 -14 -10 -8 0 -17 -6 -19 -12 -4 -8 -6 -7 -6 4 -1 15 11 25 32 27 4 1 7 -3
7 -9z m293 -17 c-5 -12 -7 -12 -14 -1 -13 20 -11 28 5 22 8 -3 12 -12 9 -21z
m-93 13 c0 -8 -48 -12 -66 -5 -13 5 -7 8 24 8 23 1 42 -1 42 -3z m2560 -5 c0
-5 -15 -9 -34 -8 -19 0 -33 5 -30 9 7 11 64 10 64 -1z m-2878 -28 c-3 -21 -9
-28 -28 -29 -14 -1 -24 4 -24 11 0 8 8 11 20 8 15 -4 20 0 20 16 0 11 4 21 8
21 5 0 7 -12 4 -27z m135 5 c-3 -8 -6 -5 -6 6 -1 11 2 17 5 13 3 -3 4 -12 1
-19z m373 -14 c0 -21 -4 -33 -10 -29 -5 3 -10 19 -10 36 0 16 5 29 10 29 6 0
10 -16 10 -36z m2080 32 c0 -3 -4 -8 -10 -11 -5 -3 -10 -1 -10 4 0 6 5 11 10
11 6 0 10 -2 10 -4z m-2206 -16 c-7 -7 -19 -7 -35 -1 -23 9 -22 10 11 10 23 1
31 -2 24 -9z m2169 3 c-7 -2 -19 -2 -25 0 -7 3 -2 5 12 5 14 0 19 -2 13 -5z
m-2234 -19 c8 -8 -21 -24 -44 -24 -20 0 -45 17 -45 30 0 8 81 2 89 -6z m2222
-4 c12 0 20 -3 16 -6 -9 -10 -77 5 -77 17 0 6 7 6 19 -1 11 -5 30 -10 42 -10z
m329 10 c0 -5 -4 -10 -10 -10 -5 0 -10 5 -10 10 0 6 5 10 10 10 6 0 10 -4 10
-10z m-139 -50 c6 0 7 -5 3 -11 -10 -16 -24 10 -22 41 1 24 1 24 5 -2 2 -16 9
-28 14 -28z m-2611 15 c0 -8 -4 -15 -10 -15 -5 0 -10 7 -10 15 0 8 5 15 10 15
6 0 10 -7 10 -15z m2517 -4 c0 -11 -5 -18 -9 -15 -4 3 -5 11 -1 19 7 21 12 19
10 -4z m251 -50 l-2 -46 -3 48 c-2 26 -8 45 -14 42 -5 -4 -14 -3 -20 1 -8 4
-7 9 2 15 23 14 39 -11 37 -60z m144 37 c-8 -8 -9 -4 -5 13 4 13 8 18 11 10 2
-7 -1 -18 -6 -23z m-232 -4 c0 -14 -3 -14 -15 -4 -8 7 -15 14 -15 16 0 2 7 4
15 4 8 0 15 -7 15 -16z m400 -4 c0 -5 -2 -10 -4 -10 -3 0 -8 5 -11 10 -3 6 -1
10 4 10 6 0 11 -4 11 -10z m-424 -21 c10 -17 -13 -36 -27 -22 -12 12 -4 33 11
33 5 0 12 -5 16 -11z m264 -9 c0 -5 -7 -10 -16 -10 -8 0 -12 5 -9 10 3 6 10
10 16 10 5 0 9 -4 9 -10z m480 0 c0 -5 -4 -10 -10 -10 -5 0 -10 5 -10 10 0 6
5 10 10 10 6 0 10 -4 10 -10z m-430 -4 c0 -11 -19 -15 -25 -6 -3 5 1 10 9 10
9 0 16 -2 16 -4z m140 -55 c0 -11 -6 -9 -20 7 -11 12 -20 26 -20 31 0 6 9 3
20 -6 11 -10 20 -24 20 -32z m195 29 c3 -5 1 -10 -4 -10 -6 0 -11 5 -11 10 0
6 2 10 4 10 3 0 8 -4 11 -10z m-305 -45 c0 -43 -1 -45 -30 -45 -23 0 -30 4
-30 20 0 21 15 27 25 10 11 -18 25 0 25 31 0 16 2 29 5 29 3 0 5 -20 5 -45z
m430 25 c0 -5 -4 -10 -10 -10 -5 0 -10 5 -10 10 0 6 5 10 10 10 6 0 10 -4 10
-10z m-30 -60 c0 -5 -5 -10 -11 -10 -5 0 -7 5 -4 10 3 6 8 10 11 10 2 0 4 -4
4 -10z m-149 -9 c-9 -6 -12 -22 -9 -50 2 -22 0 -41 -4 -41 -9 0 -11 10 -12 55
-1 29 9 45 29 45 6 0 4 -4 -4 -9z m239 -35 c0 -26 -6 -18 -14 19 -5 22 -4 26
4 15 5 -8 10 -24 10 -34z m720 29 c-7 -8 -17 -12 -23 -8 -6 4 -3 9 9 14 27 11
28 11 14 -6z m-1013 -1 c-3 -3 -12 -4 -19 -1 -8 3 -5 6 6 6 11 1 17 -2 13 -5z
m213 -34 c0 -5 -9 -10 -20 -10 -11 0 -20 5 -20 10 0 6 9 10 20 10 11 0 20 -4
20 -10z m-216 -21 c-3 -5 -10 -7 -15 -3 -5 3 -7 10 -3 15 3 5 10 7 15 3 5 -3
7 -10 3 -15z m325 -15 c2 -2 -10 -4 -27 -4 -18 0 -32 5 -32 10 0 9 47 4 59 -6z
m1161 6 c0 -5 -4 -10 -10 -10 -5 0 -10 5 -10 10 0 6 5 10 10 10 6 0 10 -4 10
-10z m-1040 -37 c0 -26 -1 -26 -14 -7 -11 14 -11 21 -3 26 17 11 17 11 17 -19z
m-62 10 c-10 -2 -18 -9 -18 -14 0 -5 8 -9 18 -10 10 0 12 -3 4 -6 -6 -2 -25 1
-42 9 -25 11 -27 14 -12 20 9 3 28 6 42 6 16 0 19 -2 8 -5z m439 -59 c-3 -3
-12 -4 -19 -1 -8 3 -5 6 6 6 11 1 17 -2 13 -5z m-377 -24 c0 -5 -7 -10 -16
-10 -8 0 -12 5 -9 10 3 6 10 10 16 10 5 0 9 -4 9 -10z m190 -25 c10 -13 9 -15
-9 -15 -12 0 -21 6 -21 15 0 8 4 15 9 15 5 0 14 -7 21 -15z m-110 -3 c0 -4 -9
-8 -19 -8 -11 0 -17 4 -15 8 3 4 12 8 20 8 8 0 14 -4 14 -8z m205 -12 c-3 -5
-14 -10 -23 -10 -15 0 -15 2 -2 10 20 13 33 13 25 0z m-194 -43 c-8 -8 -11 -7
-11 4 0 20 13 34 18 19 3 -7 -1 -17 -7 -23z m236 -24 c-3 -10 -5 -2 -5 17 0
19 2 27 5 18 2 -10 2 -26 0 -35z m-192 7 c-11 -5 -14 -9 -7 -9 21 -1 13 -31
-8 -31 -23 0 -24 4 -10 31 6 10 18 19 28 18 14 0 14 -2 -3 -9z m51 -18 c1 -13
-5 -22 -12 -22 -8 0 -14 11 -14 26 0 31 24 28 26 -4z m117 -2 c3 -13 0 -20 -9
-20 -8 0 -14 9 -14 20 0 11 4 20 9 20 5 0 11 -9 14 -20z m-97 -57 c-11 -11
-19 6 -11 24 8 17 8 17 12 0 3 -10 2 -21 -1 -24z"/>
<path d="M626 14464 c-6 -15 8 -17 39 -5 18 7 17 8 -7 13 -17 3 -29 0 -32 -8z"/>
<path d="M7965 14973 c8 -21 20 -38 27 -37 10 1 13 -9 10 -32 -2 -19 -8 -31
-13 -28 -5 3 -9 0 -9 -5 0 -6 3 -11 8 -11 4 0 8 -20 9 -44 1 -33 -2 -46 -15
-51 -14 -5 -14 -7 -2 -16 12 -7 12 -11 2 -17 -10 -7 -6 -13 13 -28 14 -10 25
-26 25 -35 0 -22 29 -33 47 -18 11 10 13 7 11 -17 -3 -46 53 -124 90 -124 11
0 30 8 43 18 13 10 32 21 42 25 9 4 22 18 29 32 8 19 19 25 42 25 30 1 30 1
11 16 -20 16 -20 16 3 9 16 -5 22 -2 22 9 0 8 9 21 20 29 11 8 17 17 13 20 -3
4 -1 7 5 7 7 0 12 10 12 23 0 20 5 23 35 24 42 1 89 29 81 48 -2 7 6 21 19 31
20 15 22 24 20 72 -2 31 -9 59 -17 63 -10 7 -10 9 2 9 12 1 11 3 -3 11 -9 6
-15 15 -11 20 3 6 -47 9 -136 8 -111 -1 -140 -4 -137 -14 3 -7 0 -18 -6 -24
-8 -8 -7 -11 6 -11 9 0 17 -4 17 -10 0 -5 -9 -10 -21 -10 -11 0 -18 -4 -15 -9
4 -5 2 -20 -3 -33 l-9 -23 -13 28 c-8 19 -20 27 -33 26 -37 -2 -46 1 -46 16 0
9 -12 27 -26 40 -23 21 -37 25 -94 25 l-68 0 13 -37z m140 -113 c3 -5 -1 -10
-9 -10 -9 0 -16 5 -16 10 0 6 4 10 9 10 6 0 13 -4 16 -10z m-85 -34 c0 -3 -4
-8 -10 -11 -5 -3 -10 -1 -10 4 0 6 5 11 10 11 6 0 10 -2 10 -4z m3 -51 c-7
-21 -13 -19 -13 6 0 11 4 18 10 14 5 -3 7 -12 3 -20z"/>
<path d="M9156 14945 c-4 -36 -4 -94 0 -130 6 -62 9 -67 39 -80 18 -7 37 -21
43 -31 5 -10 16 -15 25 -11 18 7 47 -32 47 -63 0 -11 7 -20 15 -20 14 0 19 12
16 33 0 4 4 7 9 7 13 0 13 -97 0 -105 -6 -4 -8 -10 -5 -15 3 -5 1 -11 -5 -15
-15 -9 -12 -25 5 -25 8 0 15 -3 15 -7 0 -5 27 -7 59 -6 86 3 89 -6 51 -129 -4
-15 -6 -46 -3 -69 5 -33 9 -40 24 -36 11 3 21 1 24 -3 3 -5 22 -6 42 -3 31 5
35 4 30 -10 -4 -10 -1 -17 6 -17 8 0 6 -4 -3 -10 -11 -7 -11 -10 -2 -10 31 0
-3 -20 -36 -21 -25 -1 -29 -3 -14 -6 15 -3 22 -10 18 -19 -3 -8 -1 -14 4 -14
14 0 12 -26 -2 -49 -20 -33 3 -48 65 -43 48 4 56 2 70 -19 15 -21 15 -23 -1
-35 -22 -16 -11 -27 21 -19 14 4 24 12 21 19 -8 21 39 66 68 66 15 0 32 8 38
18 9 14 10 12 5 -12 -5 -26 -4 -28 9 -17 12 10 14 24 10 55 -4 30 -3 37 5 26
9 -13 11 -13 11 2 0 9 -9 20 -21 23 -14 5 -18 12 -13 23 3 10 6 26 6 37 -1 21
37 85 51 85 4 0 7 -7 7 -15 0 -8 6 -15 14 -15 8 0 17 -6 19 -12 4 -10 6 -10 6
0 1 6 8 12 17 12 10 0 14 -6 10 -15 -6 -16 28 -22 38 -6 3 4 17 6 31 3 16 -3
25 0 25 9 0 8 6 5 14 -7 11 -14 11 -21 3 -26 -11 -7 1 -9 61 -12 9 -1 22 -7
28 -15 9 -11 13 -11 19 -1 4 7 2 16 -6 22 -11 8 -10 8 4 4 10 -3 23 -6 28 -6
5 0 8 -6 6 -12 -1 -7 5 -12 14 -10 9 1 19 -4 22 -13 4 -8 13 -12 21 -9 20 8
32 -13 35 -61 1 -22 5 -25 44 -26 41 -1 41 -1 12 -10 -16 -5 -38 -7 -47 -5
-10 2 -18 0 -18 -5 0 -5 8 -9 18 -9 13 0 22 -14 31 -47 8 -27 13 -56 12 -65
-1 -10 3 -18 10 -18 24 0 -5 -18 -36 -23 -24 -3 -22 -4 12 -6 23 0 43 -6 45
-12 3 -8 10 -8 25 2 12 7 26 9 30 5 4 -5 2 -11 -4 -13 -7 -3 -13 -12 -13 -20
0 -13 2 -13 17 -2 13 11 17 11 20 2 3 -7 15 -13 27 -13 12 0 28 -6 34 -12 10
-10 15 -10 23 2 7 11 8 7 3 -13 -5 -21 -3 -26 9 -22 11 5 13 0 10 -19 -3 -14
-9 -26 -14 -26 -5 0 -9 -5 -9 -11 0 -7 9 -9 24 -5 25 6 41 -8 66 -56 18 -38
27 -35 47 14 16 41 17 42 24 18 7 -24 7 -24 8 -2 1 27 21 30 21 2 0 -11 5 -20
10 -20 6 0 10 9 10 20 0 11 5 20 10 20 6 0 10 -8 10 -19 0 -13 6 -17 23 -15
12 3 33 -5 46 -17 21 -17 23 -22 10 -31 -11 -8 -10 -9 4 -4 10 3 23 6 28 6 14
0 11 34 -5 55 -12 17 -11 20 12 33 18 9 28 10 30 3 2 -6 27 -12 55 -13 51 -1
51 -2 10 -5 -25 -3 -43 -9 -43 -16 0 -8 15 -11 44 -9 41 4 46 2 61 -28 l17
-32 16 34 c12 22 25 34 42 36 14 1 49 7 77 14 40 8 50 14 43 23 -8 9 -6 14 6
19 11 4 14 13 11 29 -6 21 -5 20 16 -4 12 -15 32 -30 45 -34 13 -4 22 -15 23
-28 1 -12 6 -3 12 21 11 49 27 56 27 12 0 -21 5 -30 16 -30 13 0 15 7 9 40 -4
26 -3 40 4 40 6 0 11 -14 11 -31 0 -17 4 -28 10 -24 6 3 10 17 10 31 0 13 5
24 10 24 6 0 10 -7 10 -16 0 -11 6 -14 20 -9 11 3 20 2 20 -3 0 -6 7 -13 16
-16 8 -3 12 -2 9 4 -3 5 1 15 9 22 12 11 11 16 -7 36 -22 23 -22 24 -2 38 21
16 77 14 73 -1 -2 -6 -6 -9 -10 -7 -5 1 -8 -11 -8 -26 0 -15 -5 -33 -12 -40
-6 -6 -8 -15 -3 -19 4 -5 10 -2 12 5 3 6 13 12 23 12 10 0 22 5 25 10 10 17
32 11 38 -10 3 -13 13 -20 29 -20 22 1 22 1 4 15 -11 8 -17 15 -13 15 4 0 3 9
-4 21 -8 15 -14 18 -22 10 -19 -19 -25 -13 -29 28 -2 29 1 42 14 50 15 10 18
8 18 -12 0 -26 39 -53 63 -44 9 3 18 -1 21 -9 10 -25 7 -34 -9 -28 -8 4 -15 1
-15 -5 0 -6 9 -11 19 -11 29 0 43 28 44 83 0 15 2 25 5 22 3 -2 10 3 17 12 11
14 12 14 18 -6 3 -14 1 -21 -9 -21 -8 0 -11 -6 -8 -15 4 -10 20 -15 50 -15 32
0 44 -4 44 -15 0 -8 7 -15 15 -15 8 0 15 -4 15 -10 0 -6 26 -10 59 -10 33 0
63 -5 66 -10 5 -8 11 -8 20 0 11 9 16 6 26 -11 l12 -23 16 21 c18 21 94 38 88
19 -2 -6 -18 -10 -36 -8 -38 3 -50 -17 -28 -48 15 -21 15 -21 21 -2 8 25 58
36 69 16 5 -8 12 -12 18 -9 5 4 9 2 9 -4 0 -6 -13 -17 -30 -26 -25 -13 -41
-35 -25 -35 10 0 61 26 68 35 6 7 10 6 14 -2 2 -7 12 -13 21 -13 10 0 30 -7
46 -15 16 -9 31 -13 34 -10 3 3 0 5 -6 5 -19 0 -14 18 6 23 9 2 0 4 -22 4 -39
1 -66 17 -51 30 4 5 10 2 12 -4 3 -7 15 -13 29 -13 17 0 22 4 18 15 -7 18 -3
19 30 2 14 -8 23 -17 19 -20 -3 -4 -1 -7 5 -7 6 0 14 5 17 10 3 6 12 10 18 10
7 0 6 -4 -3 -10 -12 -8 -10 -10 10 -11 22 -1 21 -2 -7 -10 -45 -13 -41 -19 13
-19 39 0 45 3 40 16 -6 15 0 16 41 10 27 -3 49 -11 51 -16 4 -12 82 -14 82 -2
0 5 -12 7 -27 5 -37 -5 -54 8 -46 35 7 27 19 28 26 2 3 -13 13 -20 29 -19 21
0 22 1 3 9 -16 6 -13 8 15 7 19 0 29 -2 23 -4 -18 -6 -16 -43 2 -43 8 0 15 -6
15 -12 0 -9 3 -8 10 2 7 12 11 10 20 -10 9 -22 10 -20 6 14 -3 22 -11 43 -18
48 -10 6 -9 8 3 8 9 0 19 -9 22 -20 3 -12 14 -20 27 -20 19 0 20 2 10 15 -10
12 -10 15 4 15 9 0 16 -6 16 -14 0 -12 20 -26 36 -26 11 0 2 31 -10 36 -7 3
-11 14 -9 28 3 13 -2 30 -12 39 -9 10 -12 17 -7 17 13 0 42 -45 42 -65 0 -8 5
-15 10 -15 6 0 10 -13 10 -29 0 -20 6 -30 20 -34 11 -3 20 -2 20 3 0 9 99 20
117 13 7 -3 13 -11 13 -19 0 -8 9 -14 20 -14 14 0 18 5 13 16 -4 11 5 26 27
45 18 16 36 29 41 29 4 0 10 8 12 18 4 13 5 11 6 -5 0 -13 -3 -23 -9 -23 -5 0
-6 -8 -3 -17 5 -13 2 -15 -12 -10 -9 4 -24 2 -31 -4 -20 -17 -18 -32 4 -21 21
11 42 5 42 -13 0 -8 -8 -12 -22 -9 -21 4 -21 4 -3 -5 27 -12 32 -7 40 36 8 40
9 39 30 -22 6 -17 9 -15 20 15 12 31 14 32 14 10 1 -22 6 -25 41 -27 22 0 40
3 40 8 0 5 -4 9 -10 9 -16 0 -12 17 6 24 10 4 22 -1 30 -11 13 -17 15 -17 30
2 11 14 18 16 21 8 3 -7 16 -13 29 -13 14 0 24 -6 24 -14 0 -24 28 -27 33 -3
l4 22 2 -22 c0 -13 7 -23 15 -23 7 0 17 10 20 23 l6 22 15 -25 c10 -18 14 -20
15 -8 0 9 9 20 20 23 11 3 20 13 20 21 0 17 -37 19 -43 2 -2 -7 -3 -1 -1 15 5
39 -21 35 -36 -5 -10 -29 -12 -31 -21 -15 -13 22 -5 47 15 47 22 0 29 31 9 45
-23 17 -11 30 15 16 11 -6 23 -26 26 -46 7 -38 26 -48 26 -14 0 14 5 19 14 16
11 -4 13 1 10 19 -2 13 0 24 5 24 5 0 12 -18 16 -40 4 -22 10 -40 15 -40 16 0
20 33 7 54 -13 20 -12 21 17 23 17 0 25 -1 19 -4 -18 -7 -16 -33 1 -33 8 0 17
8 19 18 4 15 5 15 6 0 1 -22 -41 -68 -65 -69 -12 0 -9 -4 9 -9 16 -5 35 -6 43
-3 8 3 14 0 14 -6 0 -6 5 -11 10 -11 6 0 10 7 10 15 0 8 -9 15 -21 15 -11 0
-18 4 -15 9 7 11 46 2 46 -11 0 -5 5 -6 10 -3 16 10 -8 35 -26 28 -8 -3 -14
-1 -14 5 0 5 7 13 16 16 10 4 13 13 9 26 -5 16 -2 20 15 20 14 0 20 -5 18 -17
-4 -22 41 -30 72 -13 13 7 20 7 20 1 0 -6 8 -7 18 -4 15 6 15 5 3 -10 -11 -14
-11 -18 2 -23 8 -3 23 -4 33 -2 11 2 23 -6 30 -20 9 -18 14 -21 20 -10 6 9 11
1 14 -26 3 -22 11 -41 19 -44 9 -3 11 0 5 9 -4 7 -9 28 -9 46 -2 29 1 33 23
33 14 0 23 3 19 6 -3 3 3 14 13 24 10 10 22 25 26 33 8 14 18 14 69 5 77 -13
134 -13 148 1 6 6 19 11 29 11 15 0 17 6 11 45 -4 31 -2 45 6 45 6 0 11 -17
11 -40 0 -45 13 -52 87 -47 51 4 60 11 42 33 -12 14 -8 15 34 9 47 -7 68 7 27
18 -13 3 -18 10 -14 21 6 16 -10 23 -19 9 -2 -5 -2 -3 -1 4 2 7 -1 15 -6 18
-13 8 -13 25 0 25 6 0 10 -6 10 -14 0 -18 33 -30 60 -21 12 4 20 2 20 -5 0 -6
8 -10 18 -8 9 2 17 10 17 18 0 8 10 16 23 18 15 2 22 -2 22 -12 0 -9 -6 -16
-12 -16 -9 0 -9 -3 1 -9 11 -7 10 -10 -5 -14 -16 -4 -17 -5 -1 -6 19 -1 23
-21 6 -38 -8 -8 -8 -13 0 -17 6 -4 11 -1 11 7 0 18 24 29 45 21 9 -4 15 0 15
10 0 9 -8 16 -19 16 -31 0 -33 17 -5 39 35 27 44 26 44 -5 0 -14 4 -23 10 -19
14 8 13 48 -2 63 -8 8 -4 14 18 23 16 6 39 16 52 22 17 8 25 7 35 -5 6 -9 19
-18 27 -20 8 -3 -2 -8 -22 -12 -29 -5 -38 -12 -38 -26 0 -24 22 -26 40 -5 7 8
19 15 26 15 22 0 16 37 -8 54 -12 9 -19 18 -16 21 8 8 38 -5 38 -17 0 -17 28
-38 50 -38 14 0 21 6 19 18 -1 9 -1 24 0 32 1 12 3 13 10 1 5 -7 6 -22 4 -32
-4 -13 0 -19 11 -19 9 0 16 -4 16 -10 0 -5 9 -10 20 -10 25 0 26 17 3 23 -14
4 -12 5 5 6 12 0 22 -3 22 -8 0 -5 3 -17 7 -27 4 -12 3 -15 -5 -10 -15 9 -15
1 -2 -25 6 -10 18 -19 28 -18 10 0 12 3 5 6 -19 7 -16 20 7 26 26 7 25 21 -2
35 l-23 12 24 -3 c30 -3 52 -34 32 -46 -11 -7 -11 -9 0 -14 11 -3 9 -9 -6 -21
-17 -13 -17 -15 -4 -16 18 0 29 19 29 50 0 10 7 20 15 24 23 8 18 26 -7 26
-12 0 -19 3 -15 6 11 11 77 -6 77 -20 0 -18 28 -28 47 -17 14 7 13 10 -5 15
-16 5 -22 15 -22 36 0 41 17 46 25 8 l7 -31 14 31 c10 25 13 133 14 493 0 411
-1 460 -15 449 -12 -10 -15 -10 -15 4 0 9 7 16 15 16 9 0 15 9 15 25 0 14 -5
25 -11 25 -6 0 -9 -6 -6 -13 4 -10 -8 -13 -44 -14 -33 0 -49 3 -49 12 0 8 -15
12 -42 12 -24 0 -35 -2 -25 -5 27 -6 20 -19 -14 -26 -53 -10 -70 -8 -67 12 3
16 -145 17 -2968 20 l-2971 2 -7 -65z m234 -375 c0 -5 -4 -10 -10 -10 -5 0
-10 5 -10 10 0 6 5 10 10 10 6 0 10 -4 10 -10z m70 -70 c0 -5 -4 -10 -10 -10
-5 0 -10 5 -10 10 0 6 5 10 10 10 6 0 10 -4 10 -10z m983 -267 c-7 -2 -21 -2
-30 0 -10 3 -4 5 12 5 17 0 24 -2 18 -5z m-43 -55 c0 -23 -3 -29 -11 -21 -6 6
-8 20 -4 32 9 30 15 26 15 -11z m4680 -19 c0 -6 -4 -7 -10 -4 -5 3 -10 11 -10
16 0 6 5 7 10 4 6 -3 10 -11 10 -16z m160 1 c0 -11 -4 -20 -9 -20 -5 0 -7 9
-4 20 3 11 7 20 9 20 2 0 4 -9 4 -20z m27 -2 c-3 -8 -6 -5 -6 6 -1 11 2 17 5
13 3 -3 4 -12 1 -19z m-310 -30 c-3 -7 -5 -2 -5 12 0 14 2 19 5 13 2 -7 2 -19
0 -25z m251 7 c-3 -3 -9 2 -12 12 -6 14 -5 15 5 6 7 -7 10 -15 7 -18z m-428 1
c0 -2 -7 -7 -16 -10 -8 -3 -12 -2 -9 4 6 10 25 14 25 6z m370 -10 c0 -2 -9 -6
-20 -9 -11 -3 -20 -1 -20 4 0 5 9 9 20 9 11 0 20 -2 20 -4z m-436 -48 c-11
-17 -24 -6 -24 19 0 26 1 26 14 8 8 -11 12 -23 10 -27z m83 20 c-3 -8 -6 -5
-6 6 -1 11 2 17 5 13 3 -3 4 -12 1 -19z m403 2 c0 -5 -7 -7 -15 -4 -8 4 -15 8
-15 10 0 2 7 4 15 4 8 0 15 -4 15 -10z m-560 -15 c0 -8 -4 -15 -10 -15 -5 0
-10 7 -10 15 0 8 5 15 10 15 6 0 10 -7 10 -15z m248 1 c-7 -8 -15 -12 -17 -11
-5 6 10 25 20 25 5 0 4 -6 -3 -14z m116 -11 c-4 -8 -8 -15 -10 -15 -2 0 -4 7
-4 15 0 8 4 15 10 15 5 0 7 -7 4 -15z m336 -5 c0 -5 -13 -10 -30 -10 -16 0
-30 -4 -30 -10 0 -5 -7 -10 -16 -10 -13 0 -13 2 -2 13 24 25 78 36 78 17z
m-3565 -21 c12 -18 -3 -22 -20 -5 -14 14 -14 16 -1 16 8 0 18 -5 21 -11z
m3029 -4 c-4 -10 0 -15 12 -15 18 -1 18 -1 2 -14 -10 -7 -18 -18 -18 -25 0
-14 -17 -15 -25 -1 -3 6 1 13 9 16 23 9 20 24 -4 24 -11 0 -20 -4 -20 -10 0
-5 -11 -10 -25 -10 -51 0 -14 25 72 49 1 1 0 -6 -3 -14z m116 4 c0 -6 -9 -9
-20 -6 -11 3 -20 1 -20 -4 0 -5 -9 -9 -20 -9 -27 0 -25 18 3 23 42 8 57 7 57
-4z m268 4 c-10 -2 -26 -2 -35 0 -10 3 -2 5 17 5 19 0 27 -2 18 -5z m-3268
-35 c0 -6 -7 -5 -15 2 -8 7 -15 17 -15 22 0 6 7 5 15 -2 8 -7 15 -17 15 -22z
m2717 26 c-3 -3 -12 -4 -19 -1 -8 3 -5 6 6 6 11 1 17 -2 13 -5z m363 -4 c0 -5
-4 -10 -10 -10 -5 0 -10 5 -10 10 0 6 5 10 10 10 6 0 10 -4 10 -10z m-360 -30
c0 -5 -2 -10 -4 -10 -3 0 -8 5 -11 10 -3 6 -1 10 4 10 6 0 11 -4 11 -10z m560
-6 c0 -10 -12 -14 -40 -14 -62 0 -51 26 13 28 17 0 27 -4 27 -14z m69 7 c9 -6
10 -11 2 -15 -14 -9 -51 2 -51 15 0 11 30 12 49 0z m-3112 -38 c-3 -10 -5 -4
-5 12 0 17 2 24 5 18 2 -7 2 -21 0 -30z m-397 23 c0 -9 -30 -14 -35 -6 -4 6 3
10 14 10 12 0 21 -2 21 -4z m197 -7 c6 -6 9 -18 6 -26 -4 -11 -8 -10 -19 4
-12 16 -15 16 -24 3 -8 -13 -10 -13 -10 2 0 9 -6 19 -12 21 -7 3 1 6 18 6 16
1 35 -4 41 -10z m43 1 c0 -5 -4 -10 -10 -10 -5 0 -10 5 -10 10 0 6 5 10 10 10
6 0 10 -4 10 -10z m2678 -8 c6 -18 -15 -14 -22 4 -4 10 -1 14 6 12 6 -2 14
-10 16 -16z m-2808 -12 c-8 -5 -19 -10 -25 -10 -5 0 -3 5 5 10 8 5 20 10 25
10 6 0 3 -5 -5 -10z m2530 0 c0 -5 -2 -10 -4 -10 -3 0 -8 5 -11 10 -3 6 -1 10
4 10 6 0 11 -4 11 -10z m240 -5 c0 -8 -4 -15 -10 -15 -5 0 -7 7 -4 15 4 8 8
15 10 15 2 0 4 -7 4 -15z m-2927 -2 c-7 -2 -19 -2 -25 0 -7 3 -2 5 12 5 14 0
19 -2 13 -5z m47 -3 c0 -5 -4 -10 -9 -10 -6 0 -13 5 -16 10 -3 6 1 10 9 10 9
0 16 -4 16 -10z m320 -10 c0 -11 -4 -20 -8 -20 -4 0 -8 9 -8 20 0 11 4 20 8
20 4 0 8 -9 8 -20z m-1570 -20 c0 -5 -4 -10 -10 -10 -5 0 -10 5 -10 10 0 6 5
10 10 10 6 0 10 -4 10 -10z m1090 0 c0 -5 -2 -10 -4 -10 -3 0 -8 5 -11 10 -3
6 -1 10 4 10 6 0 11 -4 11 -10z m290 -11 c0 -5 -10 -9 -21 -9 -18 0 -19 2 -9
15 12 15 30 12 30 -6z m-130 1 c0 -5 -5 -10 -11 -10 -5 0 -7 5 -4 10 3 6 8 10
11 10 2 0 4 -4 4 -10z m260 0 c0 -5 -2 -10 -4 -10 -3 0 -8 5 -11 10 -3 6 -1
10 4 10 6 0 11 -4 11 -10z m280 0 c0 -5 -4 -10 -10 -10 -5 0 -10 5 -10 10 0 6
5 10 10 10 6 0 10 -4 10 -10z m2180 0 c0 -5 -4 -10 -10 -10 -5 0 -10 5 -10 10
0 6 5 10 10 10 6 0 10 -4 10 -10z m-3123 -22 c-3 -8 -6 -5 -6 6 -1 11 2 17 5
13 3 -3 4 -12 1 -19z m83 12 c0 -5 -4 -10 -10 -10 -5 0 -10 5 -10 10 0 6 5 10
10 10 6 0 10 -4 10 -10z m660 6 c0 -3 -4 -8 -10 -11 -5 -3 -10 -1 -10 4 0 6 5
11 10 11 6 0 10 -2 10 -4z m-132 -26 c16 0 22 -4 19 -13 -3 -8 -2 -19 2 -26
10 -16 61 3 61 24 0 28 30 16 31 -12 l2 -28 4 28 c5 31 23 37 23 7 0 -11 5
-20 10 -20 6 0 10 9 10 20 0 11 5 20 10 20 6 0 10 -6 9 -12 -3 -27 2 -38 16
-38 9 0 14 8 12 21 -1 12 4 24 11 26 6 3 12 -2 12 -11 0 -9 8 -16 20 -16 11 0
20 -6 20 -14 0 -17 -44 -29 -80 -21 -16 4 -31 1 -35 -5 -5 -8 -11 -8 -21 1 -9
7 -37 10 -74 7 -57 -4 -60 -3 -60 19 0 13 -4 23 -10 23 -5 0 -10 -4 -10 -10 0
-5 -4 -10 -10 -10 -5 0 -10 9 -10 20 0 11 -5 20 -11 20 -5 0 -7 5 -3 11 4 8 9
8 17 0 6 -6 22 -11 35 -11z m909 -22 c-3 -7 -5 -2 -5 12 0 14 2 19 5 13 2 -7
2 -19 0 -25z m1036 25 c-7 -2 -19 -2 -25 0 -7 3 -2 5 12 5 14 0 19 -2 13 -5z
m407 -3 c0 -5 -5 -10 -11 -10 -5 0 -7 5 -4 10 3 6 8 10 11 10 2 0 4 -4 4 -10z
m-3796 -15 c-22 -16 -44 -19 -44 -6 0 11 18 19 44 20 20 1 20 1 0 -14z m439 0
c-3 -9 -8 -14 -10 -11 -3 3 -2 9 2 15 9 16 15 13 8 -4z m1274 9 c-3 -3 -12 -4
-19 -1 -8 3 -5 6 6 6 11 1 17 -2 13 -5z m163 2 c0 -3 -4 -8 -10 -11 -5 -3 -10
-1 -10 4 0 6 5 11 10 11 6 0 10 -2 10 -4z m724 -11 c-4 -8 -11 -12 -16 -9 -6
4 -5 10 3 15 19 12 19 11 13 -6z m313 -17 c-3 -7 -5 -2 -5 12 0 14 2 19 5 13
2 -7 2 -19 0 -25z m430 26 c-3 -3 -12 -4 -19 -1 -8 3 -5 6 6 6 11 1 17 -2 13
-5z m83 -4 c0 -5 -2 -10 -4 -10 -3 0 -8 5 -11 10 -3 6 -1 10 4 10 6 0 11 -4
11 -10z m-190 -24 c0 -15 7 -26 18 -29 16 -4 16 -5 -1 -6 -10 -1 -21 10 -27
25 -12 32 -12 34 0 34 6 0 10 -11 10 -24z m397 18 c-3 -3 -12 -4 -19 -1 -8 3
-5 6 6 6 11 1 17 -2 13 -5z m-3130 -51 c-3 -10 -5 -2 -5 17 0 19 2 27 5 18 2
-10 2 -26 0 -35z m253 37 c0 -5 -7 -10 -15 -10 -8 0 -15 5 -15 10 0 6 7 10 15
10 8 0 15 -4 15 -10z m240 -5 c0 -9 -6 -12 -16 -8 -10 4 -20 -1 -26 -11 -5 -9
-13 -14 -18 -11 -5 3 -20 0 -35 -7 -21 -10 -29 -9 -42 5 -15 15 -14 16 8 21
36 8 113 24 122 25 4 1 7 -6 7 -14z m2160 3 c0 -8 -13 -13 -30 -13 -36 0 -37
3 -7 15 31 12 37 12 37 -2z m-850 -14 c0 -2 -7 -4 -15 -4 -8 0 -15 4 -15 10 0
5 7 7 15 4 8 -4 15 -8 15 -10z m1490 8 c0 -18 -47 -30 -81 -22 l-34 8 32 1
c17 1 35 6 38 11 7 12 45 13 45 2z m-3437 -39 c-9 -23 -20 -14 -15 13 3 17 7
22 12 13 5 -7 6 -18 3 -26z m2237 27 c0 -5 -4 -10 -9 -10 -6 0 -13 5 -16 10
-3 6 1 10 9 10 9 0 16 -4 16 -10z m188 -19 c-1 -22 -6 -29 -19 -28 -16 1 -16
4 -3 29 18 36 23 35 22 -1z m402 19 c0 -5 -5 -10 -11 -10 -5 0 -7 5 -4 10 3 6
8 10 11 10 2 0 4 -4 4 -10z m-2990 -10 c0 -5 -2 -10 -4 -10 -3 0 -8 5 -11 10
-3 6 -1 10 4 10 6 0 11 -4 11 -10z m464 4 c9 -3 16 -10 16 -14 0 -10 -49 0
-56 11 -6 10 17 12 40 3z m1103 -16 c-3 -8 -6 -5 -6 6 -1 11 2 17 5 13 3 -3 4
-12 1 -19z m303 12 c0 -5 -2 -10 -4 -10 -3 0 -8 5 -11 10 -3 6 -1 10 4 10 6 0
11 -4 11 -10z m367 -12 c-3 -8 -6 -5 -6 6 -1 11 2 17 5 13 3 -3 4 -12 1 -19z
m397 6 c3 -8 2 -12 -4 -9 -6 3 -10 10 -10 16 0 14 7 11 14 -7z m106 12 c0 -3
-4 -8 -10 -11 -5 -3 -10 -1 -10 4 0 6 5 11 10 11 6 0 10 -2 10 -4z m462 -28
c-5 -5 -20 -8 -33 -6 -24 3 -23 4 6 20 30 16 48 7 27 -14z m149 -11 c-9 -9
-14 -8 -21 3 -5 8 -6 18 -3 23 3 5 9 3 14 -4 7 -11 9 -9 10 6 1 18 2 18 6 1 3
-10 0 -23 -6 -29z m409 33 c0 -5 -7 -10 -15 -10 -8 0 -15 5 -15 10 0 6 7 10
15 10 8 0 15 -4 15 -10z m-3425 -10 c3 -5 1 -10 -4 -10 -6 0 -11 5 -11 10 0 6
2 10 4 10 3 0 8 -4 11 -10z m2934 -6 c6 4 11 3 11 -3 0 -6 7 -8 15 -5 12 5 15
-3 15 -35 0 -30 -4 -41 -16 -41 -8 0 -13 4 -9 10 11 18 -7 60 -26 60 -11 0
-19 7 -19 18 0 13 2 14 9 3 5 -7 14 -10 20 -7z m-3052 0 c-3 -3 -12 -4 -19 -1
-8 3 -5 6 6 6 11 1 17 -2 13 -5z m423 -16 c0 -16 -3 -19 -11 -11 -6 6 -8 16
-5 22 11 17 16 13 16 -11z m1198 4 c2 -8 -7 -11 -25 -11 -26 2 -26 2 -4 6 19
4 21 7 10 15 -12 8 -12 9 0 6 8 -3 17 -10 19 -16z m162 8 c0 -5 -7 -7 -15 -4
-8 4 -15 8 -15 10 0 2 7 4 15 4 8 0 15 -4 15 -10z m410 -5 c9 -10 9 -15 1 -15
-6 0 -11 4 -11 9 0 5 -10 12 -22 14 -22 4 -22 4 -2 6 12 0 27 -6 34 -14z
m-2010 -10 c0 -8 -2 -15 -4 -15 -2 0 -6 7 -10 15 -3 8 -1 15 4 15 6 0 10 -7
10 -15z m1477 9 c-3 -3 -12 -4 -19 -1 -8 3 -5 6 6 6 11 1 17 -2 13 -5z m1033
-4 c0 -5 -4 -10 -10 -10 -5 0 -10 5 -10 10 0 6 5 10 10 10 6 0 10 -4 10 -10z
m-2390 -10 c0 -5 -7 -10 -16 -10 -8 0 -12 5 -9 10 3 6 10 10 16 10 5 0 9 -4 9
-10z m1510 0 c0 -5 -2 -10 -4 -10 -3 0 -8 5 -11 10 -3 6 -1 10 4 10 6 0 11 -4
11 -10z m505 0 c-3 -5 -10 -10 -16 -10 -5 0 -9 5 -9 10 0 6 7 10 16 10 8 0 12
-4 9 -10z m-2430 -10 c3 -5 1 -10 -4 -10 -6 0 -11 5 -11 10 0 6 2 10 4 10 3 0
8 -4 11 -10z m2533 -2 c-6 -18 -28 -21 -28 -4 0 9 7 16 16 16 9 0 14 -5 12
-12z m-2722 -25 c-10 -10 -19 5 -10 18 6 11 8 11 12 0 2 -7 1 -15 -2 -18z
m519 4 c0 -26 -20 -25 -23 2 -3 16 1 22 10 19 7 -3 13 -12 13 -21z m44 -4 c0
-25 -1 -25 -8 -8 -5 11 -7 23 -4 28 8 14 13 7 12 -20z m1391 0 c0 -22 -2 -25
-10 -13 -13 20 -13 40 0 40 6 0 10 -12 10 -27z m45 17 c3 -5 1 -10 -4 -10 -6
0 -11 5 -11 10 0 6 2 10 4 10 3 0 8 -4 11 -10z m440 0 c3 -5 -3 -10 -14 -10
-12 0 -21 5 -21 10 0 6 6 10 14 10 8 0 18 -4 21 -10z m1000 -10 c0 -7 -6 -15
-12 -17 -8 -3 -13 4 -13 17 0 13 5 20 13 18 6 -3 12 -11 12 -18z m-1555 0 c0
-5 -6 -10 -14 -10 -8 0 -18 5 -21 10 -3 6 3 10 14 10 12 0 21 -4 21 -10z m40
-10 c0 -14 -6 -20 -22 -19 -17 1 -18 3 -6 6 10 2 15 10 11 19 -3 8 0 14 6 14
6 0 11 -9 11 -20z m195 10 c-3 -5 -10 -10 -16 -10 -5 0 -9 5 -9 10 0 6 7 10
16 10 8 0 12 -4 9 -10z m233 -2 c18 -18 15 -28 -8 -28 -13 0 -20 7 -20 20 0
23 10 26 28 8z m268 -11 c1 -9 -4 -17 -12 -17 -8 0 -14 9 -14 21 0 24 22 21
26 -4z m259 13 c-3 -5 -12 -10 -20 -10 -8 0 -17 5 -20 10 -4 6 5 10 20 10 15
0 24 -4 20 -10z m-2645 -16 c0 -8 -4 -12 -10 -9 -5 3 -10 10 -10 16 0 5 5 9
10 9 6 0 10 -7 10 -16z m360 6 c0 -5 -5 -10 -11 -10 -5 0 -7 5 -4 10 3 6 8 10
11 10 2 0 4 -4 4 -10z m1922 -2 c-9 -9 -15 -9 -24 0 -9 9 -7 12 12 12 19 0 21
-3 12 -12z m158 -2 c0 -8 8 -17 18 -19 9 -3 3 -5 -15 -6 -26 -1 -30 2 -26 19
6 23 23 27 23 6z m146 -9 c17 6 64 -4 64 -15 0 -16 -85 2 -86 18 0 8 1 10 3 3
2 -7 11 -9 19 -6z m-48 -7 c12 0 13 -3 5 -11 -14 -14 -33 -3 -32 19 0 11 3 12
6 5 2 -7 12 -13 21 -13z m-279 1 c10 -7 10 -10 1 -16 -7 -4 -15 -3 -19 3 -3 6
-22 12 -41 15 l-35 4 40 1 c22 1 46 -2 54 -7z m-89 -20 c0 -8 -90 -21 -99 -15
-1 2 0 7 4 13 8 13 95 15 95 2z"/>
<path d="M1360 14631 c0 -6 8 -11 17 -11 13 0 14 -3 5 -12 -19 -19 -14 -28 12
-28 21 0 24 4 23 28 -2 21 -8 28 -30 30 -15 2 -27 -1 -27 -7z"/>
<path d="M1440 14585 c0 -22 -4 -25 -40 -25 l-40 0 2 -42 c1 -36 2 -38 5 -11
5 38 22 44 82 26 30 -9 48 -10 55 -3 10 10 7 12 -29 14 -30 1 -28 51 2 51 11
0 25 3 29 8 4 4 -9 7 -29 7 -33 0 -37 -3 -37 -25z"/>
<path d="M1690 14596 c0 -8 5 -18 10 -21 6 -3 10 3 10 14 0 12 -4 21 -10 21
-5 0 -10 -6 -10 -14z"/>
<path d="M1127 14540 c-21 -25 -21 -30 -3 -30 8 0 18 9 21 21 9 29 2 32 -18 9z"/>
<path d="M1167 14546 c-3 -8 2 -16 14 -19 10 -3 19 -14 19 -25 0 -15 5 -18 25
-14 29 5 39 17 30 32 -5 8 -11 8 -20 0 -10 -8 -18 -5 -33 15 -23 29 -28 30
-35 11z"/>
<path d="M1280 14519 c0 -5 5 -7 10 -4 6 3 10 8 10 11 0 2 -4 4 -10 4 -5 0
-10 -5 -10 -11z"/>
<path d="M1320 14511 c0 -22 16 -36 24 -22 8 12 -3 41 -15 41 -5 0 -9 -9 -9
-19z"/>
<path d="M1996 14521 c-3 -5 -3 -24 1 -42 5 -28 7 -30 14 -14 16 43 4 87 -15
56z"/>
<path d="M1905 14510 c-3 -5 -1 -10 4 -10 6 0 11 5 11 10 0 6 -2 10 -4 10 -3
0 -8 -4 -11 -10z"/>
<path d="M1548 14493 c6 -2 18 -2 25 0 6 3 1 5 -13 5 -14 0 -19 -2 -12 -5z"/>
<path d="M1935 14470 c4 -11 2 -20 -4 -20 -6 0 -11 7 -11 15 0 8 -7 15 -15 15
-22 0 -18 -17 5 -30 21 -11 60 -5 60 9 0 10 -22 31 -33 31 -4 0 -5 -9 -2 -20z"/>
<path d="M1086 14465 c-3 -8 -1 -15 4 -15 6 0 10 7 10 15 0 8 -2 15 -4 15 -2
0 -6 -7 -10 -15z"/>
<path d="M1041 14441 c-1 -24 2 -32 9 -25 7 7 7 19 1 35 -9 23 -10 22 -10 -10z"/>
<path d="M1760 14460 c0 -5 5 -10 11 -10 5 0 7 5 4 10 -3 6 -8 10 -11 10 -2 0
-4 -4 -4 -10z"/>
<path d="M1250 14453 c8 -3 18 -10 21 -15 3 -5 9 -3 11 4 4 9 -3 14 -21 15
-14 1 -19 -1 -11 -4z"/>
<path d="M2280 14420 c21 -11 36 -14 39 -8 5 14 -19 28 -49 27 -23 0 -23 -1
10 -19z"/>
<path d="M2496 14431 c-8 -13 4 -42 15 -35 12 7 12 44 0 44 -6 0 -12 -4 -15
-9z"/>
<path d="M2160 14418 c0 -4 6 -8 14 -8 8 0 17 4 20 8 2 4 -4 8 -15 8 -10 0
-19 -4 -19 -8z"/>
<path d="M840 14390 c-8 -5 -11 -12 -7 -16 4 -4 13 -2 19 4 15 15 7 24 -12 12z"/>
<path d="M880 14389 c0 -5 19 -9 42 -9 49 0 47 5 -4 13 -21 3 -38 2 -38 -4z"/>
<path d="M2215 14390 c3 -5 8 -10 11 -10 2 0 4 5 4 10 0 6 -5 10 -11 10 -5 0
-7 -4 -4 -10z"/>
<path d="M2240 14390 c0 -5 5 -10 10 -10 6 0 10 5 10 10 0 6 -4 10 -10 10 -5
0 -10 -4 -10 -10z"/>
<path d="M241 14351 c1 -18 3 -20 6 -8 3 11 11 16 19 13 7 -3 16 -1 19 3 2 5
-6 11 -20 13 -22 5 -25 2 -24 -21z"/>
<path d="M76 14353 c-6 -14 -5 -15 5 -6 7 7 10 15 7 18 -3 3 -9 -2 -12 -12z"/>
<path d="M320 14348 c0 -19 2 -20 10 -8 13 19 13 30 0 30 -5 0 -10 -10 -10
-22z"/>
<path d="M1000 14360 c0 -5 6 -10 14 -10 8 0 18 5 21 10 3 6 -3 10 -14 10 -12
0 -21 -4 -21 -10z"/>
<path d="M1105 14360 c3 -5 8 -10 11 -10 2 0 4 5 4 10 0 6 -5 10 -11 10 -5 0
-7 -4 -4 -10z"/>
<path d="M1150 14355 c0 -8 5 -15 10 -15 6 0 10 7 10 15 0 8 -4 15 -10 15 -5
0 -10 -7 -10 -15z"/>
<path d="M2401 14354 c0 -11 3 -14 6 -6 3 7 2 16 -1 19 -3 4 -6 -2 -5 -13z"/>
<path d="M480 14350 c0 -5 5 -10 10 -10 6 0 10 5 10 10 0 6 -4 10 -10 10 -5 0
-10 -4 -10 -10z"/>
<path d="M2435 14350 c-4 -7 -1 -16 6 -21 17 -10 26 8 11 23 -6 6 -12 6 -17
-2z"/>
<path d="M267 14334 c-9 -9 4 -35 14 -28 5 3 9 12 9 20 0 14 -12 19 -23 8z"/>
<path d="M6 14314 c-8 -22 -8 -26 5 -22 6 2 10 8 9 13 0 6 14 13 32 16 l33 6
-36 2 c-25 1 -39 -4 -43 -15z"/>
<path d="M2480 14320 c0 -5 5 -10 10 -10 6 0 10 5 10 10 0 6 -4 10 -10 10 -5
0 -10 -4 -10 -10z"/>
<path d="M9441 14314 c0 -11 3 -14 6 -6 3 7 2 16 -1 19 -3 4 -6 -2 -5 -13z"/>
<path d="M90 14310 c0 -5 5 -10 10 -10 6 0 10 5 10 10 0 6 -4 10 -10 10 -5 0
-10 -4 -10 -10z"/>
<path d="M32 14290 c-15 -25 -16 -23 12 -53 l25 -27 3 28 c3 26 -11 72 -22 72
-3 0 -11 -9 -18 -20z m28 -25 c0 -8 -4 -15 -10 -15 -5 0 -10 7 -10 15 0 8 5
15 10 15 6 0 10 -7 10 -15z"/>
<path d="M180 14300 c0 -5 9 -10 20 -10 11 0 20 5 20 10 0 6 -9 10 -20 10 -11
0 -20 -4 -20 -10z"/>
<path d="M240 14301 c0 -9 30 -24 36 -18 2 1 -6 8 -16 15 -11 7 -20 8 -20 3z"/>
<path d="M2555 14300 c-4 -6 11 -10 36 -10 48 0 49 4 2 13 -18 4 -35 2 -38 -3z"/>
<path d="M640 14290 c0 -5 7 -10 16 -10 8 0 12 5 9 10 -3 6 -10 10 -16 10 -5
0 -9 -4 -9 -10z"/>
<path d="M2688 14283 c7 -3 16 -2 19 1 4 3 -2 6 -13 5 -11 0 -14 -3 -6 -6z"/>
<path d="M2905 14261 c-3 -5 1 -16 8 -23 10 -10 12 -28 7 -66 -5 -40 -3 -52 7
-52 9 0 13 14 13 45 0 25 5 45 10 45 6 0 10 -19 10 -42 0 -40 0 -41 20 -23 23
21 26 45 6 45 -8 0 -18 10 -22 23 -7 25 -33 57 -45 57 -4 0 -10 -4 -14 -9z"/>
<path d="M120 14256 c0 -2 11 -6 25 -8 13 -3 22 -1 19 3 -5 9 -44 13 -44 5z"/>
<path d="M400 14250 c0 -5 6 -10 14 -10 8 0 18 5 21 10 3 6 -3 10 -14 10 -12
0 -21 -4 -21 -10z"/>
<path d="M2680 14250 c0 -5 4 -10 9 -10 6 0 13 5 16 10 3 6 -1 10 -9 10 -9 0
-16 -4 -16 -10z"/>
<path d="M80 14230 c0 -11 2 -20 4 -20 2 0 6 9 9 20 3 11 1 20 -4 20 -5 0 -9
-9 -9 -20z"/>
<path d="M502 14230 c-11 -18 -10 -20 12 -20 19 0 23 4 19 20 -3 11 -8 20 -12
20 -3 0 -12 -9 -19 -20z"/>
<path d="M640 14240 c0 -5 5 -10 10 -10 6 0 10 5 10 10 0 6 -4 10 -10 10 -5 0
-10 -4 -10 -10z"/>
<path d="M722 14230 c0 -14 2 -19 5 -12 2 6 2 18 0 25 -3 6 -5 1 -5 -13z"/>
<path d="M2720 14230 c0 -11 7 -20 15 -20 8 0 15 6 15 14 0 8 -7 16 -15 20
-10 4 -15 -1 -15 -14z"/>
<path d="M2840 14233 c0 -13 5 -23 10 -23 13 0 13 11 0 30 -8 12 -10 11 -10
-7z"/>
<path d="M0 14217 c0 -15 4 -27 8 -27 10 0 9 36 -1 46 -4 4 -7 -5 -7 -19z"/>
<path d="M340 14220 c0 -5 5 -10 11 -10 5 0 7 5 4 10 -3 6 -8 10 -11 10 -2 0
-4 -4 -4 -10z"/>
<path d="M3020 14210 c0 -11 5 -20 10 -20 6 0 11 -15 11 -32 2 -32 2 -33 6 -4
6 35 -4 76 -17 76 -6 0 -10 -9 -10 -20z"/>
<path d="M128 14213 c6 -2 18 -2 25 0 6 3 1 5 -13 5 -14 0 -19 -2 -12 -5z"/>
<path d="M400 14211 c0 -4 11 -6 25 -3 14 2 25 6 25 8 0 2 -11 4 -25 4 -14 0
-25 -4 -25 -9z"/>
<path d="M2883 14170 c0 -25 2 -35 4 -22 2 12 2 32 0 45 -2 12 -4 2 -4 -23z"/>
<path d="M690 14180 c0 -5 7 -7 15 -4 8 4 15 8 15 10 0 2 -7 4 -15 4 -8 0 -15
-4 -15 -10z"/>
<path d="M10240 14123 c0 -12 3 -14 8 -7 4 7 16 14 27 17 15 4 14 5 -7 6 -21
1 -28 -4 -28 -16z"/>
<path d="M8 14123 c7 -3 16 -2 19 1 4 3 -2 6 -13 5 -11 0 -14 -3 -6 -6z"/>
<path d="M3340 14123 c0 -5 8 -17 17 -28 14 -18 15 -18 9 -2 -3 10 -6 23 -6
28 0 5 -4 9 -10 9 -5 0 -10 -3 -10 -7z"/>
<path d="M10297 14123 c-4 -3 -7 -11 -7 -17 0 -6 5 -5 12 2 6 6 9 14 7 17 -3
3 -9 2 -12 -2z"/>
<path d="M2880 14084 c0 -8 5 -12 10 -9 6 4 8 11 5 16 -9 14 -15 11 -15 -7z"/>
<path d="M3240 14090 c0 -5 5 -10 10 -10 6 0 10 5 10 10 0 6 -4 10 -10 10 -5
0 -10 -4 -10 -10z"/>
<path d="M9895 14060 c-3 -5 -1 -10 4 -10 6 0 11 5 11 10 0 6 -2 10 -4 10 -3
0 -8 -4 -11 -10z"/>
<path d="M3110 14043 c0 -10 4 -14 8 -8 4 6 11 13 16 18 5 4 2 7 -7 7 -10 0
-17 -8 -17 -17z"/>
<path d="M3240 14050 c0 -5 5 -10 10 -10 6 0 10 5 10 10 0 6 -4 10 -10 10 -5
0 -10 -4 -10 -10z"/>
<path d="M51 14034 c0 -11 3 -14 6 -6 3 7 2 16 -1 19 -3 4 -6 -2 -5 -13z"/>
<path d="M2961 14034 c0 -11 3 -14 6 -6 3 7 2 16 -1 19 -3 4 -6 -2 -5 -13z"/>
<path d="M3281 14015 c1 -40 1 -40 10 -10 5 18 5 33 -1 39 -7 7 -10 -4 -9 -29z"/>
<path d="M3333 14043 c9 -2 23 -2 30 0 6 3 -1 5 -18 5 -16 0 -22 -2 -12 -5z"/>
<path d="M3520 14030 c0 -5 5 -10 11 -10 5 0 7 5 4 10 -3 6 -8 10 -11 10 -2 0
-4 -4 -4 -10z"/>
<path d="M3400 14020 c0 -5 5 -10 10 -10 6 0 10 5 10 10 0 6 -4 10 -10 10 -5
0 -10 -4 -10 -10z"/>
<path d="M3335 14010 c4 -6 11 -8 16 -5 5 4 9 -2 9 -11 0 -13 3 -15 11 -7 15
15 3 33 -22 33 -11 0 -17 -5 -14 -10z"/>
<path d="M3600 13997 c0 -9 10 -12 32 -9 26 4 30 2 24 -13 -4 -13 -2 -16 9
-11 12 4 15 -3 15 -34 0 -22 5 -40 10 -40 6 0 10 21 10 46 0 37 -4 47 -20 51
-11 3 -20 9 -20 14 0 5 -13 9 -30 9 -18 0 -30 -5 -30 -13z"/>
<path d="M3441 13984 c0 -11 3 -14 6 -6 3 7 2 16 -1 19 -3 4 -6 -2 -5 -13z"/>
<path d="M3522 13960 c0 -14 2 -19 5 -12 2 6 2 18 0 25 -3 6 -5 1 -5 -13z"/>
<path d="M14888 13973 c7 -3 16 -2 19 1 4 3 -2 6 -13 5 -11 0 -14 -3 -6 -6z"/>
<path d="M3300 13959 c0 -5 5 -7 10 -4 6 3 10 8 10 11 0 2 -4 4 -10 4 -5 0
-10 -5 -10 -11z"/>
<path d="M3608 13963 c6 -2 18 -2 25 0 6 3 1 5 -13 5 -14 0 -19 -2 -12 -5z"/>
<path d="M3710 13963 c0 -5 8 -17 17 -28 14 -18 15 -18 9 -2 -3 10 -6 23 -6
28 0 5 -4 9 -10 9 -5 0 -10 -3 -10 -7z"/>
<path d="M3751 13954 c0 -11 3 -14 6 -6 3 7 2 16 -1 19 -3 4 -6 -2 -5 -13z"/>
<path d="M4430 13955 c0 -8 5 -15 10 -15 6 0 10 7 10 15 0 8 -4 15 -10 15 -5
0 -10 -7 -10 -15z"/>
<path d="M14830 13962 c0 -4 5 -13 12 -20 18 -18 28 -15 28 8 0 13 -7 20 -20
20 -11 0 -20 -4 -20 -8z"/>
<path d="M15237 13908 c-2 -18 -3 -35 -1 -37 7 -8 35 30 32 46 -6 30 -26 24
-31 -9z"/>
<path d="M3600 13920 c0 -5 5 -10 10 -10 6 0 10 5 10 10 0 6 -4 10 -10 10 -5
0 -10 -4 -10 -10z"/>
<path d="M3760 13911 c0 -12 5 -21 10 -21 6 0 10 6 10 14 0 8 -4 18 -10 21 -5
3 -10 -3 -10 -14z"/>
<path d="M15280 13913 c0 -20 5 -23 40 -23 31 0 40 4 40 17 0 13 -3 14 -12 5
-17 -17 -45 -15 -57 6 -9 15 -10 15 -11 -5z"/>
<path d="M3856 13902 c-3 -6 -2 -13 4 -17 13 -8 50 3 50 16 0 13 -18 11 -23
-3 -4 -10 -8 -10 -15 1 -6 8 -12 9 -16 3z"/>
<path d="M14632 13886 c13 -13 22 -15 35 -7 16 9 16 10 1 11 -9 0 -25 3 -35 7
-17 7 -17 6 -1 -11z"/>
<path d="M14925 13890 c-30 -8 -30 -8 8 -9 23 -1 36 3 32 9 -3 6 -7 9 -8 9 -1
-1 -15 -5 -32 -9z"/>
<path d="M9968 13883 c6 -2 18 -2 25 0 6 3 1 5 -13 5 -14 0 -19 -2 -12 -5z"/>
<path d="M14868 13883 c7 -3 16 -2 19 1 4 3 -2 6 -13 5 -11 0 -14 -3 -6 -6z"/>
<path d="M15330 13830 c0 -19 3 -21 12 -12 9 9 9 15 0 24 -9 9 -12 7 -12 -12z"/>
<path d="M14800 13829 c0 -5 5 -7 10 -4 6 3 10 8 10 11 0 2 -4 4 -10 4 -5 0
-10 -5 -10 -11z"/>
<path d="M9629 13823 c-1 -4 -1 -12 0 -16 1 -4 -6 -10 -14 -13 -8 -4 -15 -17
-15 -30 0 -16 -6 -24 -17 -25 -14 0 -15 -2 -3 -6 8 -3 18 -10 21 -16 4 -5 18
-7 31 -4 22 6 24 11 23 59 -1 30 -6 53 -13 56 -7 2 -13 0 -13 -5z"/>
<path d="M14560 13802 c0 -18 3 -22 13 -15 6 6 25 13 40 17 37 9 26 24 -18 23
-30 -1 -35 -4 -35 -25z"/>
<path d="M9686 13809 c3 -5 14 -14 24 -19 16 -8 18 -7 14 4 -3 8 -14 16 -25
19 -10 3 -17 1 -13 -4z"/>
<path d="M11853 13790 c-1 -11 4 -20 12 -20 8 0 13 9 12 20 -1 11 -6 20 -12
20 -6 0 -11 -9 -12 -20z"/>
<path d="M11910 13798 c0 -15 9 -18 45 -18 26 0 45 5 45 11 0 7 -12 9 -36 4
-26 -4 -39 -2 -45 7 -7 10 -9 9 -9 -4z"/>
<path d="M14386 13801 c-14 -5 -16 -10 -7 -15 15 -9 41 -1 41 14 0 11 -7 12
-34 1z"/>
<path d="M14708 13803 c7 -3 16 -2 19 1 4 3 -2 6 -13 5 -11 0 -14 -3 -6 -6z"/>
<path d="M9986 13791 c-4 -7 -5 -15 -2 -18 9 -9 19 4 14 18 -4 11 -6 11 -12 0z"/>
<path d="M14880 13790 c0 -5 9 -10 21 -10 11 0 17 5 14 10 -3 6 -13 10 -21 10
-8 0 -14 -4 -14 -10z"/>
<path d="M14123 13765 c-17 -15 -21 -23 -10 -19 9 3 17 1 17 -4 0 -6 -8 -13
-17 -15 -10 -3 -2 -4 19 -3 20 0 34 4 31 9 -2 4 2 7 9 7 10 0 11 2 0 8 -7 5
-10 16 -6 25 9 25 -11 21 -43 -8z"/>
<path d="M15065 13780 c3 -5 13 -10 21 -10 8 0 14 5 14 10 0 6 -9 10 -21 10
-11 0 -17 -4 -14 -10z"/>
<path d="M14375 13760 c-19 -7 -19 -8 -2 -15 19 -8 31 -2 26 13 -2 5 -13 6
-24 2z"/>
<path d="M14940 13760 c-13 -8 -12 -10 3 -10 9 0 17 5 17 10 0 12 -1 12 -20 0z"/>
<path d="M3840 13749 c0 -5 5 -7 10 -4 6 3 10 8 10 11 0 2 -4 4 -10 4 -5 0
-10 -5 -10 -11z"/>
<path d="M14200 13750 c-12 -8 -10 -10 8 -10 13 0 20 4 17 10 -7 12 -6 12 -25
0z"/>
<path d="M14560 13749 c0 -5 5 -7 10 -4 6 3 10 8 10 11 0 2 -4 4 -10 4 -5 0
-10 -5 -10 -11z"/>
<path d="M14720 13751 c0 -6 4 -13 10 -16 6 -3 7 1 4 9 -7 18 -14 21 -14 7z"/>
<path d="M11280 13720 c0 -27 3 -30 29 -30 34 0 49 16 32 33 -9 9 -14 8 -20
-2 -11 -17 -32 -5 -24 14 3 8 0 15 -6 15 -6 0 -11 -13 -11 -30z"/>
<path d="M11905 13740 c3 -5 8 -10 11 -10 2 0 4 5 4 10 0 6 -5 10 -11 10 -5 0
-7 -4 -4 -10z"/>
<path d="M12130 13740 c0 -5 8 -10 18 -10 15 -1 15 -2 -2 -15 -17 -13 -18 -15
-3 -15 10 0 17 -8 17 -20 0 -11 4 -20 10 -20 5 0 7 7 4 15 -4 9 0 15 10 15 9
0 16 5 16 11 0 7 -9 9 -21 6 -14 -4 -19 -2 -16 8 6 13 -10 35 -25 35 -4 0 -8
-4 -8 -10z"/>
<path d="M13650 13740 c0 -5 5 -10 10 -10 6 0 10 5 10 10 0 6 -4 10 -10 10 -5
0 -10 -4 -10 -10z"/>
<path d="M13860 13739 c-22 -6 -20 -7 13 -8 38 -1 47 3 25 11 -7 3 -24 1 -38
-3z"/>
<path d="M14451 13736 c-8 -10 -9 -16 -1 -21 13 -8 30 3 30 21 0 18 -14 18
-29 0z"/>
<path d="M11597 13719 c4 -15 8 -17 14 -8 8 14 3 29 -11 29 -4 0 -6 -9 -3 -21z"/>
<path d="M11768 13733 c7 -3 16 -2 19 1 4 3 -2 6 -13 5 -11 0 -14 -3 -6 -6z"/>
<path d="M14600 13725 c0 -8 2 -15 4 -15 2 0 6 7 10 15 3 8 1 15 -4 15 -6 0
-10 -7 -10 -15z"/>
<path d="M10912 13708 c5 -32 28 -35 28 -4 0 17 -5 26 -16 26 -10 0 -14 -7
-12 -22z"/>
<path d="M12208 13723 c7 -3 16 -2 19 1 4 3 -2 6 -13 5 -11 0 -14 -3 -6 -6z"/>
<path d="M14240 13710 c0 -11 5 -20 12 -20 6 0 8 3 5 7 -4 3 -2 12 4 20 9 10
8 13 -5 13 -9 0 -16 -8 -16 -20z"/>
<path d="M14320 13719 c0 -5 5 -7 10 -4 6 3 10 8 10 11 0 2 -4 4 -10 4 -5 0
-10 -5 -10 -11z"/>
<path d="M14390 13723 c0 -5 5 -15 10 -23 8 -12 10 -11 10 8 0 12 -4 22 -10
22 -5 0 -10 -3 -10 -7z"/>
<path d="M4088 13713 c7 -3 16 -2 19 1 4 3 -2 6 -13 5 -11 0 -14 -3 -6 -6z"/>
<path d="M11400 13710 c0 -5 7 -10 16 -10 8 0 12 5 9 10 -3 6 -10 10 -16 10
-5 0 -9 -4 -9 -10z"/>
<path d="M10595 13700 c-7 -12 2 -30 16 -30 5 0 9 9 9 20 0 21 -15 27 -25 10z"/>
<path d="M11520 13700 c0 -5 5 -10 11 -10 5 0 7 5 4 10 -3 6 -8 10 -11 10 -2
0 -4 -4 -4 -10z"/>
<path d="M13825 13700 c3 -5 8 -10 11 -10 2 0 4 5 4 10 0 6 -5 10 -11 10 -5 0
-7 -4 -4 -10z"/>
<path d="M13860 13694 c0 -9 5 -14 12 -12 18 6 21 28 4 28 -9 0 -16 -7 -16
-16z"/>
<path d="M12560 13685 c0 -8 9 -15 20 -15 24 0 27 15 4 24 -22 9 -24 8 -24 -9z"/>
<path d="M13920 13680 c0 -12 -4 -19 -9 -15 -5 3 -12 1 -16 -5 -4 -6 6 -9 26
-6 39 4 48 20 20 36 -18 9 -21 8 -21 -10z"/>
<path d="M11160 13680 l-45 -7 58 -1 c32 -1 57 2 57 8 0 11 -1 11 -70 0z"/>
<path d="M11357 13671 c-3 -14 -1 -18 9 -14 16 6 18 19 5 27 -5 3 -11 -3 -14
-13z"/>
<path d="M12320 13675 c0 -11 11 -15 38 -15 35 1 36 2 18 15 -26 19 -56 19
-56 0z"/>
<path d="M12826 13683 c-13 -13 -5 -23 19 -23 15 0 29 -7 33 -18 5 -14 14 -16
37 -11 l30 7 -30 2 c-26 1 -27 3 -10 10 18 8 18 9 2 9 -10 1 -31 8 -46 16 -16
8 -31 11 -35 8z"/>
<path d="M13663 13684 c10 -10 77 -12 83 -2 3 4 -16 8 -42 8 -26 0 -44 -3 -41
-6z"/>
<path d="M14700 13680 c0 -5 5 -10 10 -10 6 0 10 5 10 10 0 6 -4 10 -10 10 -5
0 -10 -4 -10 -10z"/>
<path d="M11800 13670 c-12 -8 -9 -10 13 -10 15 0 27 5 27 10 0 13 -20 13 -40
0z"/>
<path d="M12200 13670 c0 -5 5 -10 10 -10 6 0 10 5 10 10 0 6 -4 10 -10 10 -5
0 -10 -4 -10 -10z"/>
<path d="M12640 13668 c0 -5 13 -8 29 -8 16 0 36 -3 45 -6 10 -4 16 -1 16 7 0
10 -14 14 -45 14 -25 0 -45 -3 -45 -7z"/>
<path d="M10625 13660 c-3 -5 -1 -10 4 -10 6 0 11 5 11 10 0 6 -2 10 -4 10 -3
0 -8 -4 -11 -10z"/>
<path d="M10732 13658 c2 -6 10 -14 16 -16 7 -2 10 2 6 12 -7 18 -28 22 -22 4z"/>
<path d="M10770 13665 c0 -3 9 -14 21 -26 15 -15 24 -18 32 -10 8 8 6 11 -6
11 -10 0 -20 7 -23 15 -6 14 -24 22 -24 10z"/>
<path d="M10800 13660 c0 -5 5 -10 10 -10 6 0 10 5 10 10 0 6 -4 10 -10 10 -5
0 -10 -4 -10 -10z"/>
<path d="M11296 13661 c-3 -5 4 -11 16 -14 29 -8 32 -4 8 11 -10 6 -21 8 -24
3z"/>
<path d="M11998 13658 c5 -5 16 -8 23 -6 8 3 3 7 -10 11 -17 4 -21 3 -13 -5z"/>
<path d="M13760 13663 c0 -5 5 -15 10 -23 8 -12 10 -11 10 8 0 12 -4 22 -10
22 -5 0 -10 -3 -10 -7z"/>
<path d="M12402 13635 c0 -16 2 -22 5 -12 2 9 2 23 0 30 -3 6 -5 -1 -5 -18z"/>
<path d="M13618 13653 c6 -2 18 -2 25 0 6 3 1 5 -13 5 -14 0 -19 -2 -12 -5z"/>
<path d="M13814 13649 c-3 -6 -1 -16 5 -22 8 -8 11 -7 11 5 0 9 8 19 18 21 13
4 12 5 -5 6 -12 0 -25 -4 -29 -10z"/>
<path d="M14315 13650 c-3 -6 1 -7 9 -4 18 7 21 14 7 14 -6 0 -13 -4 -16 -10z"/>
<path d="M11026 13643 c7 -4 14 -19 17 -33 4 -22 5 -21 4 4 -1 17 -9 31 -17
33 -10 3 -11 2 -4 -4z"/>
<path d="M11238 13643 c7 -3 16 -2 19 1 4 3 -2 6 -13 5 -11 0 -14 -3 -6 -6z"/>
<path d="M12430 13639 c0 -5 5 -7 10 -4 6 3 10 8 10 11 0 2 -4 4 -10 4 -5 0
-10 -5 -10 -11z"/>
<path d="M12475 13640 c4 -6 11 -8 16 -5 14 9 11 15 -7 15 -8 0 -12 -5 -9 -10z"/>
<path d="M12640 13638 c0 -9 0 -9 48 -11 17 -1 32 1 32 6 0 8 -5 9 -50 11 -16
0 -30 -2 -30 -6z"/>
<path d="M12815 13640 c3 -5 8 -10 11 -10 2 0 4 5 4 10 0 6 -5 10 -11 10 -5 0
-7 -4 -4 -10z"/>
<path d="M12850 13639 c0 -5 5 -7 10 -4 6 3 10 8 10 11 0 2 -4 4 -10 4 -5 0
-10 -5 -10 -11z"/>
<path d="M13030 13640 c0 -5 7 -10 15 -10 8 0 15 5 15 10 0 6 -7 10 -15 10 -8
0 -15 -4 -15 -10z"/>
<path d="M13278 13643 c7 -3 16 -2 19 1 4 3 -2 6 -13 5 -11 0 -14 -3 -6 -6z"/>
<path d="M10679 13638 c-5 -17 -4 -50 3 -54 9 -6 28 37 21 49 -4 6 -22 10 -24
5z"/>
<path d="M13492 13631 c-10 -6 -7 -10 12 -13 16 -3 25 -1 23 5 -5 15 -20 18
-35 8z"/>
<path d="M13841 13624 c0 -11 3 -14 6 -6 3 7 2 16 -1 19 -3 4 -6 -2 -5 -13z"/>
<path d="M10881 13614 c0 -11 3 -14 6 -6 3 7 2 16 -1 19 -3 4 -6 -2 -5 -13z"/>
<path d="M13560 13620 c0 -5 5 -10 11 -10 5 0 7 5 4 10 -3 6 -8 10 -11 10 -2
0 -4 -4 -4 -10z"/>
<path d="M12268 13613 c7 -3 16 -2 19 1 4 3 -2 6 -13 5 -11 0 -14 -3 -6 -6z"/>
<path d="M13448 13613 c7 -3 16 -2 19 1 4 3 -2 6 -13 5 -11 0 -14 -3 -6 -6z"/>
<path d="M12320 13600 c0 -5 5 -10 11 -10 5 0 7 5 4 10 -3 6 -8 10 -11 10 -2
0 -4 -4 -4 -10z"/>
<path d="M10640 13584 c0 -8 5 -12 10 -9 6 3 10 10 10 16 0 5 -4 9 -10 9 -5 0
-10 -7 -10 -16z"/>
<path d="M10800 13590 c0 -5 5 -10 10 -10 6 0 10 5 10 10 0 6 -4 10 -10 10 -5
0 -10 -4 -10 -10z"/>
<path d="M12278 13583 c7 -3 16 -2 19 1 4 3 -2 6 -13 5 -11 0 -14 -3 -6 -6z"/>
<path d="M13608 13583 c6 -2 18 -2 25 0 6 3 1 5 -13 5 -14 0 -19 -2 -12 -5z"/>
<path d="M13148 13573 c7 -3 16 -2 19 1 4 3 -2 6 -13 5 -11 0 -14 -3 -6 -6z"/>
<path d="M13448 13573 c7 -3 16 -2 19 1 4 3 -2 6 -13 5 -11 0 -14 -3 -6 -6z"/>
<path d="M11041 13554 c0 -11 3 -14 6 -6 3 7 2 16 -1 19 -3 4 -6 -2 -5 -13z"/>
<path d="M10880 13540 c0 -5 5 -10 11 -10 5 0 7 5 4 10 -3 6 -8 10 -11 10 -2
0 -4 -4 -4 -10z"/>
<path d="M13740 7950 c0 -5 5 -10 10 -10 6 0 10 5 10 10 0 6 -4 10 -10 10 -5
0 -10 -4 -10 -10z"/>
<path d="M13760 7900 c0 -5 9 -10 21 -10 11 0 17 5 14 10 -3 6 -13 10 -21 10
-8 0 -14 -4 -14 -10z"/>
<path d="M13984 7859 c-3 -6 -1 -16 5 -22 8 -8 11 -5 11 11 0 24 -5 28 -16 11z"/>
<path d="M13985 7800 c3 -5 8 -10 11 -10 2 0 4 5 4 10 0 6 -5 10 -11 10 -5 0
-7 -4 -4 -10z"/>
<path d="M13921 7714 c0 -11 3 -14 6 -6 3 7 2 16 -1 19 -3 4 -6 -2 -5 -13z"/>
<path d="M13991 7714 c0 -11 3 -14 6 -6 3 7 2 16 -1 19 -3 4 -6 -2 -5 -13z"/>
<path d="M10575 4500 c-9 -15 18 -50 39 -50 16 0 16 -2 5 -16 -20 -25 -65 -44
-104 -44 l-35 0 0 -49 c0 -30 -5 -51 -12 -53 -9 -3 -7 -10 6 -23 17 -18 17
-19 -4 -35 -15 -12 -19 -19 -10 -22 9 -3 7 -13 -9 -38 -11 -19 -21 -37 -21
-40 0 -11 75 2 83 14 5 8 10 7 16 -4 13 -19 4 -30 -25 -30 -13 0 -24 -5 -24
-10 0 -6 -11 -8 -26 -4 -20 5 -25 3 -22 -7 4 -10 23 -14 76 -12 55 1 72 -2 76
-13 4 -10 17 -15 38 -13 67 4 98 -1 98 -16 0 -8 -4 -15 -10 -15 -15 0 -12 -36
3 -49 19 -15 27 -4 28 43 l2 41 7 -50 c9 -56 3 -115 -12 -115 -5 0 -16 -7 -24
-15 -11 -11 -12 -15 -3 -15 7 0 5 -7 -7 -16 -13 -11 -15 -17 -6 -20 6 -3 10
-10 6 -15 -3 -5 -2 -9 3 -9 4 0 15 -15 22 -32 8 -18 27 -46 43 -61 15 -16 28
-35 28 -43 0 -8 5 -14 10 -14 6 0 10 -10 11 -22 1 -38 22 -83 57 -123 31 -37
34 -45 36 -90 1 -15 9 -21 31 -23 17 -2 36 -11 43 -20 11 -14 13 -14 27 4 12
15 16 16 24 5 7 -11 15 -11 42 -2 26 9 44 9 77 -1 40 -12 42 -15 42 -49 0 -25
5 -39 16 -43 12 -5 13 -10 5 -19 -6 -8 -7 -18 -2 -23 5 -5 11 -21 15 -36 6
-24 3 -28 -16 -28 -18 0 -20 -2 -9 -9 12 -8 9 -11 -12 -16 -29 -8 -37 -35 -10
-35 16 0 16 -1 0 -12 -15 -12 -15 -16 -2 -43 12 -24 26 -33 63 -43 26 -7 57
-13 69 -13 12 1 25 -4 28 -9 3 -6 15 -10 27 -10 11 0 22 -8 25 -19 3 -10 14
-23 26 -29 12 -6 16 -11 10 -11 -26 -2 -11 -22 42 -56 31 -19 60 -46 64 -59 5
-13 16 -26 25 -29 9 -4 13 -12 11 -19 -3 -7 5 -29 17 -48 41 -65 50 -85 54
-115 6 -49 34 -102 63 -116 17 -9 67 -13 145 -14 81 0 121 -4 123 -12 2 -6 -4
-14 -14 -17 -10 -3 -1 -4 19 -1 24 2 41 -2 49 -11 6 -8 24 -14 40 -14 18 0 28
-5 27 -12 -2 -9 10 -13 33 -14 47 -1 70 -14 43 -25 -14 -6 -10 -8 18 -8 20 -1
45 -4 55 -8 15 -6 16 -5 5 9 -10 12 -10 18 -1 23 6 4 15 1 20 -6 7 -11 12 -12
29 -1 17 10 20 10 20 -5 0 -9 3 -13 8 -9 4 4 7 13 7 19 0 7 9 13 20 15 11 2
25 9 30 16 6 7 27 16 48 20 25 5 37 12 38 24 0 14 2 14 6 2 3 -8 11 -18 17
-22 14 -10 48 -10 43 0 -3 4 4 15 14 26 17 18 18 18 12 -3 -5 -19 -2 -21 18
-16 31 8 74 -34 65 -62 -4 -14 3 -23 28 -37 19 -10 39 -15 45 -12 6 4 25 1 43
-7 18 -8 57 -25 86 -38 31 -13 52 -29 52 -38 0 -9 16 -27 35 -40 19 -13 37
-33 41 -45 7 -20 8 -20 19 8 13 31 18 28 29 -18 5 -21 10 -26 15 -17 7 10 13
10 29 2 11 -6 45 -11 76 -11 30 0 58 -5 62 -11 3 -6 22 -9 40 -7 20 2 34 0 34
-7 0 -6 16 -18 36 -27 34 -15 40 -15 76 -1 23 9 45 27 54 45 8 16 28 34 45 40
16 5 26 14 23 19 -7 12 -2 11 37 -5 27 -12 34 -20 34 -42 0 -21 6 -30 20 -32
25 -5 66 -37 58 -46 -3 -3 -1 -6 5 -6 6 0 13 -10 15 -22 4 -23 4 -23 6 1 1 19
4 21 15 12 10 -8 12 -24 9 -52 -5 -31 -3 -39 8 -37 8 2 14 -5 14 -15 0 -12 19
-29 53 -47 28 -16 52 -27 52 -24 0 4 7 1 15 -6 18 -15 166 -15 194 0 10 5 33
11 52 14 126 17 149 37 149 128 0 38 -3 49 -10 38 -8 -13 -10 -12 -10 3 0 9 5
17 11 17 11 0 9 16 -5 51 -6 13 1 15 46 14 67 -3 101 -13 95 -29 -3 -7 3 -20
14 -30 21 -18 59 -22 59 -6 0 6 9 10 20 10 11 0 20 -7 20 -15 0 -10 11 -15 35
-15 19 0 35 -4 35 -10 0 -5 6 -7 14 -4 9 3 17 -3 21 -15 5 -16 15 -21 39 -21
17 0 36 -4 42 -10 11 -11 104 -22 103 -12 -3 19 2 32 11 32 6 0 10 -6 9 -12
-1 -7 -1 -20 0 -28 1 -12 3 -12 11 2 13 21 -7 68 -28 68 -8 0 -12 6 -9 14 4 9
-12 33 -36 59 -23 24 -52 59 -65 76 -13 17 -30 31 -38 31 -8 0 -14 4 -14 8 0
13 -56 72 -68 72 -7 0 -12 17 -13 43 l-1 42 -10 -35 -11 -35 -16 37 c-15 35
-18 37 -49 32 -25 -5 -33 -3 -31 7 1 8 -2 23 -6 33 -6 13 -3 23 10 32 25 18
17 23 -42 31 -37 4 -56 1 -75 -11 -21 -14 -30 -15 -51 -5 -14 6 -23 17 -20 25
3 8 -6 14 -29 16 -20 2 -32 8 -31 16 2 8 -9 12 -32 12 -19 0 -35 -4 -35 -9 0
-35 -114 -7 -126 31 -3 10 -12 18 -19 18 -8 0 -20 9 -27 19 -8 10 -33 24 -56
30 -23 7 -40 16 -37 21 4 6 -15 10 -45 10 -42 0 -53 3 -57 19 -3 12 -22 24
-51 34 -33 10 -46 20 -44 31 2 10 -4 16 -17 16 -10 0 -32 14 -48 30 -15 17
-36 30 -45 30 -10 0 -18 8 -18 18 0 9 -18 32 -40 51 -22 19 -40 40 -40 47 0
10 -6 11 -26 3 -15 -5 -29 -7 -32 -4 -3 3 1 5 8 5 8 0 0 12 -17 28 -18 15 -35
40 -39 56 -3 15 -17 32 -30 38 -31 14 -32 38 -1 31 13 -3 17 -1 10 4 -6 4 -13
17 -15 28 -2 17 2 19 25 17 25 -3 28 0 22 17 -4 14 -2 21 7 21 7 0 4 6 -7 12
-11 6 -25 18 -31 26 -8 11 -21 13 -42 9 -28 -6 -34 -3 -47 23 -15 30 -20 86
-9 114 3 9 15 16 25 16 12 0 19 7 19 20 0 11 4 20 9 20 10 0 23 35 25 65 1 11
13 25 29 33 18 9 27 21 27 37 0 17 6 25 23 27 21 3 33 39 12 37 -5 0 -12 10
-15 23 -5 20 -12 23 -54 24 -45 0 -49 3 -63 35 -9 22 -10 35 -3 37 5 2 10 17
10 33 0 22 -5 29 -20 29 -16 0 -19 5 -14 29 6 31 -12 53 -26 31 -6 -9 -11 -6
-21 11 -6 13 -18 30 -26 37 -7 7 -13 27 -13 43 0 27 -3 29 -42 31 -24 0 -51 1
-60 0 -11 -1 -18 5 -18 16 0 37 -59 61 -61 25 0 -12 -4 -8 -11 10 -6 16 -17
27 -28 27 -11 0 -24 8 -29 18 -8 13 -10 14 -11 2 -1 -25 -20 10 -20 37 0 12
-5 23 -11 25 -9 3 -9 10 0 26 7 12 10 26 7 30 -9 14 -74 1 -92 -19 -19 -22
-50 -25 -57 -6 -6 16 24 67 40 67 7 0 13 -4 13 -10 0 -16 17 -12 24 6 8 21
-13 49 -27 35 -5 -5 -16 -7 -23 -4 -8 3 -14 -1 -14 -8 0 -10 -3 -10 -12 -1
-18 18 -46 14 -60 -8 -17 -27 -30 -25 -26 3 3 21 0 22 -74 23 -42 1 -82 5 -88
9 -7 4 -16 1 -21 -6 -8 -14 -24 -5 -24 14 0 6 -13 11 -30 12 -16 1 -37 4 -45
8 -49 19 -165 9 -131 -13 8 -4 -16 -6 -55 -3 -79 6 -97 13 -36 13 31 0 42 4
42 15 0 14 -14 15 -102 9 -57 -3 -112 -12 -124 -19 -19 -12 -21 -12 -16 11 4
23 3 24 -48 19 -29 -2 -58 -9 -64 -15 -5 -5 -18 -10 -27 -10 -10 0 -19 -6 -22
-12 -3 -10 -7 -10 -20 1 -14 11 -20 11 -33 0 -13 -10 -17 -10 -24 0 -5 9 -10
10 -14 2 -4 -6 -2 -11 3 -11 6 0 11 -7 11 -15 0 -16 -28 -14 -105 7 -61 16
-64 19 -17 14 23 -2 42 -1 42 4 0 7 -19 12 -80 23 -28 5 -60 28 -60 43 0 10
-6 14 -15 10 -9 -3 -15 0 -15 8 0 19 -63 72 -68 57 -3 -9 -7 -9 -18 0 -17 14
-190 14 -221 1 -39 -17 -83 -48 -87 -62 -2 -8 -4 -3 -5 12 -1 35 -17 44 -31
18 -12 -22 -48 -22 -105 0 -22 8 -40 8 -70 0 -23 -6 -57 -10 -76 -7 -32 4 -31
4 9 5 23 1 42 7 42 13 0 6 -18 9 -47 8 -39 -3 -47 0 -54 18 -4 12 -18 24 -30
28 -13 4 -29 14 -37 21 -16 16 -48 18 -57 4z m2100 -320 c3 -5 1 -10 -4 -10
-6 0 -11 5 -11 10 0 6 2 10 4 10 3 0 8 -4 11 -10z m125 -60 c0 -11 -2 -20 -4
-20 -2 0 -6 9 -9 20 -3 11 -1 20 4 20 5 0 9 -9 9 -20z m40 -21 c0 -5 -4 -9
-10 -9 -5 0 -10 7 -10 16 0 8 5 12 10 9 6 -3 10 -10 10 -16z m-120 -187 l0
-24 21 23 c14 17 22 20 26 11 2 -7 11 -19 19 -26 8 -8 14 -21 14 -28 0 -8 -4
-7 -11 5 -12 21 -32 22 -49 3 -17 -22 -79 10 -80 41 0 18 5 22 30 21 25 -1 30
-5 30 -26z m480 -577 c0 -9 -6 -12 -16 -8 -13 5 -13 7 -2 14 17 11 18 11 18
-6z m-1379 -807 c-24 -10 -38 -9 -21 2 8 5 11 10 7 10 -5 0 -5 4 -2 10 4 6 11
5 19 -3 12 -10 11 -13 -3 -19z m709 -7 c0 -33 -15 -71 -27 -71 -11 0 -13 5 -8
18 4 9 10 27 12 40 5 21 23 32 23 13z m-374 -108 c-10 -10 -19 5 -10 18 6 11
8 11 12 0 2 -7 1 -15 -2 -18z m2249 -273 c3 -5 1 -10 -4 -10 -6 0 -11 5 -11
10 0 6 2 10 4 10 3 0 8 -4 11 -10z"/>
<path d="M12240 4340 c0 -5 7 -10 16 -10 8 0 12 5 9 10 -3 6 -10 10 -16 10 -5
0 -9 -4 -9 -10z"/>
<path d="M14908 4053 c6 -2 18 -2 25 0 6 3 1 5 -13 5 -14 0 -19 -2 -12 -5z"/>
<path d="M14225 2520 c3 -5 8 -10 11 -10 2 0 4 5 4 10 0 6 -5 10 -11 10 -5 0
-7 -4 -4 -10z"/>
<path d="M14560 2320 c0 -19 3 -21 12 -12 9 9 9 15 0 24 -9 9 -12 7 -12 -12z"/>
<path d="M11620 1960 c0 -6 7 -24 15 -40 11 -21 12 -30 4 -30 -34 0 -56 -102
-24 -114 8 -3 15 -12 15 -20 0 -19 15 -28 56 -33 27 -3 32 0 28 12 -4 8 2 27
11 41 16 26 16 30 -10 110 -27 83 -28 84 -61 84 -19 0 -34 -5 -34 -10z"/>
</g>
</svg>
